<svg width="85" height="85" viewBox="0 0 85 85" fill="none" xmlns="http://www.w3.org/2000/svg">
<rect width="85" height="85" rx="42.5" fill="#4EB383"/>
<path d="M50.4688 24.9688H34.5312C33.6859 24.9688 32.8751 25.3046 32.2773 25.9023C31.6796 26.5001 31.3438 27.3109 31.3438 28.1562V56.8438C31.3438 57.6891 31.6796 58.4999 32.2773 59.0977C32.8751 59.6954 33.6859 60.0312 34.5312 60.0312H50.4688C51.3141 60.0312 52.1249 59.6954 52.7227 59.0977C53.3204 58.4999 53.6562 57.6891 53.6562 56.8438V28.1562C53.6562 27.3109 53.3204 26.5001 52.7227 25.9023C52.1249 25.3046 51.3141 24.9688 50.4688 24.9688ZM50.4688 53.6562H34.5312V31.3438H50.4688V53.6562ZM48.875 44.0938H44.0938V36.125H40.9062V44.0938H36.125L42.5 50.4688L48.875 44.0938Z" fill="white"/>
</svg>
