<svg width="85" height="85" viewBox="0 0 85 85" fill="none" xmlns="http://www.w3.org/2000/svg">
<rect width="85" height="85" rx="42.5" fill="#4EB383"/>
<path d="M44.094 28.1562L45.6878 28.2518C50.1503 26.2278 54.0231 25.9887 56.0471 28.0287C57.6409 29.6384 57.7684 32.4115 56.7165 35.6787C57.8494 37.7736 58.4411 40.1183 58.4378 42.5L58.3581 44.0937H37.8465C38.4362 47.7275 41.0021 50.4687 44.094 50.4687C46.1818 50.4687 48.0306 49.2096 49.194 47.2812H57.6409C55.6487 52.8593 50.3415 56.8437 44.094 56.8437C42.054 56.8437 40.1096 56.4134 38.3724 55.6484C33.7346 57.9275 29.5749 58.2781 27.4712 56.1425C24.969 53.5925 26.0528 48.1896 29.7503 42.5C31.2324 40.1731 33.1609 37.8143 35.4399 35.5671L36.7309 34.34C34.8662 35.4396 32.4756 37.1131 30.0531 39.5834C30.7235 36.355 32.4857 33.4562 35.0431 31.3749C37.6004 29.2936 40.7968 28.1569 44.094 28.1562V28.1562ZM44.094 34.5312C41.2412 34.5312 38.8187 36.874 38.0059 40.1093H50.1821C49.3693 36.874 46.9468 34.5312 44.094 34.5312ZM55.3459 29.8456C54.294 28.7778 52.4134 28.714 50.0546 29.4471C52.4134 30.5468 54.4534 32.2362 55.9037 34.3559C56.4137 32.3796 56.2703 30.7859 55.3459 29.8456V29.8456ZM29.5749 55.25C30.8978 56.5887 33.5753 56.3496 36.8265 54.8675C33.8554 53.1148 31.6107 50.3555 30.4993 47.09C28.5868 50.7078 28.1565 53.7678 29.5749 55.25Z" fill="white"/>
</svg>
