<svg width="85" height="85" viewBox="0 0 85 85" fill="none" xmlns="http://www.w3.org/2000/svg">
<rect width="85" height="85" rx="42.5" fill="#4EB383"/>
<path d="M44.2372 55.25H29.75C28.9046 55.25 28.0939 54.9142 27.4961 54.3164C26.8983 53.7186 26.5625 52.9079 26.5625 52.0625V32.9375C26.5625 32.0921 26.8983 31.2814 27.4961 30.6836C28.0939 30.0858 28.9046 29.75 29.75 29.75H55.25C57.0191 29.75 58.4375 31.1684 58.4375 32.9375V45.3847C57.035 44.5719 55.3934 44.0938 53.6562 44.0938C48.3809 44.0938 44.0938 48.3809 44.0938 53.6562C44.0938 54.1981 44.1575 54.7241 44.2372 55.25ZM52.0625 47.2812V52.0625H47.2812V55.25H52.0625V60.0312H55.25V55.25H60.0312V52.0625H55.25V47.2812H52.0625Z" fill="white"/>
</svg>
