<svg width="94" height="94" viewBox="0 0 94 94" fill="none" xmlns="http://www.w3.org/2000/svg">
<path d="M70.4994 31.3333C72.5769 31.3333 74.5693 32.1586 76.0384 33.6276C77.5074 35.0967 78.3327 37.0891 78.3327 39.1666V78.3333C78.3327 82.6417 74.8077 86.1667 70.4994 86.1667H23.4993C21.4218 86.1667 19.4294 85.3414 17.9603 83.8723C16.4913 82.4033 15.666 80.4109 15.666 78.3333V39.1666C15.666 34.8191 19.1518 31.3333 23.4993 31.3333H27.416V23.5C27.416 12.69 36.1894 3.90881 46.9994 3.90881C57.8094 3.90881 66.5827 12.69 66.5827 23.5V31.3333H70.4994ZM46.9994 11.75C40.4977 11.75 35.2494 16.9983 35.2494 23.5V31.3333H58.7494V23.5C58.7494 16.9983 53.501 11.75 46.9994 11.75ZM43.0827 74.4167L67.5619 49.9767L62.0394 44.4542L43.0827 63.3717L32.9385 53.2667L27.416 58.75L43.0827 74.4167Z" fill="#4EB383"/>
</svg>
