<svg width="85" height="85" viewBox="0 0 85 85" fill="none" xmlns="http://www.w3.org/2000/svg">
<rect width="85" height="85" rx="42.5" fill="#4EB383"/>
<path d="M42.5 32.9375C45.0361 32.9375 47.4684 33.945 49.2617 35.7383C51.055 37.5316 52.0625 39.9639 52.0625 42.5C52.0625 46.0381 50.1341 49.13 47.2812 50.7875V53.6562C47.2812 54.0789 47.1133 54.4843 46.8145 54.7832C46.5156 55.0821 46.1102 55.25 45.6875 55.25H39.3125C38.8898 55.25 38.4844 55.0821 38.1855 54.7832C37.8867 54.4843 37.7188 54.0789 37.7188 53.6562V50.7875C34.8659 49.13 32.9375 46.0381 32.9375 42.5C32.9375 39.9639 33.945 37.5316 35.7383 35.7383C37.5316 33.945 39.9639 32.9375 42.5 32.9375V32.9375ZM45.6875 56.8438V58.4375C45.6875 58.8602 45.5196 59.2656 45.2207 59.5645C44.9218 59.8633 44.5164 60.0312 44.0938 60.0312H40.9062C40.4836 60.0312 40.0782 59.8633 39.7793 59.5645C39.4804 59.2656 39.3125 58.8602 39.3125 58.4375V56.8438H45.6875ZM55.25 40.9062H60.0312V44.0938H55.25V40.9062ZM24.9688 40.9062H29.75V44.0938H24.9688V40.9062ZM44.0938 24.9688V29.75H40.9062V24.9688H44.0938ZM31.2163 28.9531L34.6109 32.3637L32.3478 34.6109L28.9531 31.2322L31.2163 28.9531ZM50.3891 32.3478L53.7678 28.9531L56.0469 31.2322L52.6522 34.6109L50.3891 32.3478V32.3478Z" fill="white"/>
</svg>
