<svg width="85" height="85" viewBox="0 0 85 85" fill="none" xmlns="http://www.w3.org/2000/svg">
<rect width="85" height="85" rx="42.5" fill="#4EB383"/>
<g clip-path="url(#clip0)">
<path d="M44.625 26.7396C37.3894 26.7396 30.8231 29.5765 25.9622 34.1824C25.6753 34.4693 25.5 34.8678 25.5 35.314C25.5 35.7603 25.6753 36.1587 25.9622 36.4456L29.9147 40.3981C30.2132 40.6932 30.6152 40.8601 31.035 40.8631C31.4548 40.8661 31.8592 40.7049 32.1619 40.414C33.4209 39.2346 34.8553 38.2465 36.4013 37.4656C36.9272 37.2106 37.2938 36.6687 37.2938 36.0312V31.0906C39.6047 30.3256 42.0591 29.9271 44.625 29.9271C47.1591 29.9271 49.6294 30.3256 51.9403 31.0746V36.0153C51.9403 36.6368 52.3069 37.1946 52.8328 37.4496C54.3947 38.2306 55.7812 39.2346 57.0881 40.3981C57.375 40.6849 57.7734 40.8443 58.1719 40.8443C58.65 40.8443 59.0484 40.669 59.3353 40.3821L63.2878 36.4296C63.5747 36.1428 63.75 35.7443 63.75 35.2981C63.75 34.8518 63.5588 34.4693 63.2719 34.1824C58.2419 29.4002 51.5655 26.7353 44.625 26.7396V26.7396ZM39.8438 33.1146V37.8959C39.8438 37.8959 30.2812 45.8646 30.2812 50.6459V57.0209H58.9688V50.6459C58.9688 45.8646 49.4062 37.8959 49.4062 37.8959V33.1146H46.2188V36.3021H43.0312V33.1146H39.8438ZM44.625 41.0834C46.3158 41.0834 47.9373 41.755 49.1328 42.9506C50.3284 44.1461 51 45.7676 51 47.4584C51 49.1491 50.3284 50.7706 49.1328 51.9662C47.9373 53.1617 46.3158 53.8334 44.625 53.8334C42.9342 53.8334 41.3127 53.1617 40.1172 51.9662C38.9216 50.7706 38.25 49.1491 38.25 47.4584C38.25 45.7676 38.9216 44.1461 40.1172 42.9506C41.3127 41.755 42.9342 41.0834 44.625 41.0834V41.0834ZM44.625 43.474C43.5683 43.474 42.5548 43.8938 41.8076 44.641C41.0604 45.3882 40.6406 46.4017 40.6406 47.4584C40.6406 48.5151 41.0604 49.5285 41.8076 50.2758C42.5548 51.023 43.5683 51.4428 44.625 51.4428C45.6817 51.4428 46.6952 51.023 47.4424 50.2758C48.1896 49.5285 48.6094 48.5151 48.6094 47.4584C48.6094 46.4017 48.1896 45.3882 47.4424 44.641C46.6952 43.8938 45.6817 43.474 44.625 43.474V43.474Z" fill="white"/>
</g>
<defs>
<clipPath id="clip0">
<rect width="38.25" height="38.25" fill="white" transform="translate(25.5 21.9584)"/>
</clipPath>
</defs>
</svg>
