<svg width="94" height="94" viewBox="0 0 94 94" fill="none" xmlns="http://www.w3.org/2000/svg">
<path d="M66.584 74.4166V19.5833H27.4173V74.4166H66.584ZM66.584 3.91663C68.6615 3.91663 70.654 4.74192 72.123 6.21096C73.592 7.67999 74.4173 9.67243 74.4173 11.75V82.25C74.4173 84.3275 73.592 86.3199 72.123 87.789C70.654 89.258 68.6615 90.0833 66.584 90.0833H27.4173C25.3398 90.0833 23.3473 89.258 21.8783 87.789C20.4093 86.3199 19.584 84.3275 19.584 82.25V11.75C19.584 7.40246 23.0698 3.91663 27.4173 3.91663H66.584ZM35.2507 27.4166H58.7507V35.25H35.2507V27.4166ZM35.2507 43.0833H50.9173V50.9166H35.2507V43.0833Z" fill="#4EB383"/>
</svg>
