<svg width="85" height="85" viewBox="0 0 85 85" fill="none" xmlns="http://www.w3.org/2000/svg">
<rect width="85" height="85" rx="42.5" fill="#4EB383"/>
<path d="M27.3594 30.5469H57.6406C58.9794 30.5469 60.0312 31.5828 60.0312 32.9375V51.2656C60.0312 52.6203 58.9794 53.6562 57.6406 53.6562H27.3594C26.0047 53.6562 24.9688 52.6203 24.9688 51.2656V32.9375C24.9688 31.5828 26.0047 30.5469 27.3594 30.5469ZM38.8503 36.9219V47.2812L47.9506 42.0219L38.8503 36.9219ZM50.8672 56.8438H33.9734C33.4953 56.8438 33.1766 56.525 33.1766 56.0469C33.1766 55.5687 33.4953 55.25 33.9734 55.25H51.0266C51.5047 55.25 51.8234 55.5687 51.8234 56.0469C51.8234 56.525 51.3453 56.8438 50.8672 56.8438Z" fill="white"/>
</svg>
