<svg width="135" height="41" viewBox="0 0 135 41" fill="none" xmlns="http://www.w3.org/2000/svg">
<path d="M130.275 40.3236H4.7316C2.12344 40.3236 0 38.2092 0 35.6088V5.10738C0 2.50472 2.12344 0.387451 4.7316 0.387451H130.275C132.79 0.387451 134.859 2.36061 134.999 4.83851V35.8784C134.859 38.3541 132.791 40.3236 130.275 40.3236Z" fill="#262626"/>
<path d="M30.1465 20.145C30.1178 16.9258 32.787 15.3606 32.9098 15.2875C31.3974 13.0871 29.0543 12.7866 28.2306 12.763C26.2623 12.5565 24.3528 13.9381 23.3511 13.9381C22.3285 13.9381 20.7845 12.783 19.1207 12.8168C16.9793 12.8504 14.9765 14.0873 13.8778 16.0088C11.61 19.9264 13.3012 25.6838 15.4734 28.8508C16.5599 30.4023 17.8295 32.1338 19.492 32.0722C21.1177 32.0055 21.7253 31.0382 23.6871 31.0382C25.6318 31.0382 26.2019 32.0722 27.8967 32.0328C29.6417 32.0055 30.7404 30.4754 31.7895 28.9103C33.0448 27.1335 33.5489 25.382 33.569 25.2923C33.5288 25.2787 30.1817 24.0032 30.1472 20.1458L30.1465 20.145Z" fill="white"/>
<path d="M26.9452 10.6797C27.8191 9.58776 28.4173 8.10287 28.2514 6.59576C26.9861 6.65241 25.4034 7.46977 24.4914 8.53737C23.685 9.47806 22.9647 11.0196 23.1507 12.47C24.5726 12.5762 26.0325 11.7537 26.9452 10.679V10.6797Z" fill="white"/>
<path d="M49.8042 26.3077L48.6782 22.8382C48.559 22.4833 48.335 21.6488 48.0068 20.3338H47.9666C47.8345 20.8994 47.6233 21.734 47.3339 22.8382L46.2273 26.3077H49.8035H49.8042ZM53.6971 31.8494H51.4243L50.1798 27.9453H45.8539L44.6676 31.8494H42.4551L46.7422 18.5585H49.3899L53.6971 31.8494Z" fill="white"/>
<path d="M62.5282 27.0176C62.5282 26.0855 62.3178 25.3155 61.8956 24.7103C61.4338 24.0801 60.8148 23.7639 60.0386 23.7639C59.5122 23.7639 59.0339 23.9402 58.6066 24.2866C58.1787 24.6357 57.8986 25.0917 57.7672 25.6581C57.7011 25.922 57.6681 26.1371 57.6681 26.307V27.9052C57.6681 28.6015 57.8821 29.1893 58.3101 29.6705C58.7388 30.1501 59.2946 30.3903 59.979 30.3903C60.7825 30.3903 61.408 30.0806 61.8554 29.4639C62.3035 28.8459 62.5282 28.0306 62.5282 27.0183V27.0176ZM64.7012 26.9394C64.7012 28.5691 64.2582 29.8576 63.3699 30.8033C62.5756 31.645 61.5875 32.0652 60.4105 32.0652C59.1388 32.0652 58.2239 31.6128 57.6688 30.7058V35.734H55.536V25.4158C55.536 24.3912 55.5095 23.3423 55.457 22.2653H57.3334L57.4527 23.7847H57.4929C58.2038 22.6396 59.2838 22.0682 60.7322 22.0682C61.8654 22.0682 62.8105 22.5148 63.5673 23.4082C64.3228 24.3038 64.7027 25.4796 64.7027 26.9387L64.7012 26.9394Z" fill="white"/>
<path d="M73.57 27.0176C73.57 26.0855 73.3589 25.3155 72.9373 24.7103C72.4756 24.0801 71.8587 23.7639 71.0818 23.7639C70.5554 23.7639 70.0771 23.9402 69.6484 24.2866C69.2204 24.6357 68.9411 25.0917 68.8104 25.6581C68.745 25.922 68.7106 26.1371 68.7106 26.307V27.9052C68.7106 28.6015 68.9253 29.1893 69.3518 29.6705C69.7798 30.1493 70.3364 30.3903 71.0229 30.3903C71.8264 30.3903 72.4519 30.0806 72.8986 29.4639C73.3459 28.8459 73.5707 28.0306 73.5707 27.0183L73.57 27.0176ZM75.7444 26.9394C75.7444 28.5691 75.3006 29.8576 74.4131 30.8033C73.6181 31.645 72.6307 32.0652 71.4523 32.0652C70.1812 32.0652 69.2664 31.6128 68.7106 30.7058V35.734H66.5777V25.4158C66.5777 24.3912 66.5504 23.3423 66.498 22.2653H68.3745L68.4937 23.7847H68.5332C69.2441 22.6396 70.3234 22.0682 71.774 22.0682C72.9057 22.0682 73.8515 22.5148 74.6098 23.4082C75.3638 24.3038 75.7444 25.4796 75.7444 26.9387V26.9394Z" fill="white"/>
<path d="M88.0929 28.122C88.0929 29.2533 87.6972 30.1733 86.9095 30.8831C86.0434 31.6582 84.8334 32.0461 83.2823 32.0461C81.8497 32.0461 80.7007 31.77 79.834 31.2179L80.3273 29.4433C81.2623 29.9961 82.2906 30.2722 83.4094 30.2722C84.2137 30.2722 84.8392 30.0908 85.2851 29.7302C85.7325 29.3688 85.9587 28.8856 85.9587 28.2818C85.9587 27.7413 85.772 27.2888 85.4043 26.9203C85.0352 26.5524 84.4241 26.2105 83.5674 25.8949C81.2357 25.0274 80.0695 23.7584 80.0695 22.0885C80.0695 20.998 80.4817 20.1053 81.3046 19.4077C82.1276 18.7108 83.2177 18.3623 84.5742 18.3623C85.7856 18.3623 86.7953 18.5731 87.5974 18.9932L87.0617 20.7291C86.307 20.3211 85.4553 20.1175 84.5031 20.1175C83.7512 20.1175 83.1609 20.3025 82.7394 20.6703C82.3832 20.9987 82.2037 21.3995 82.2037 21.8741C82.2037 22.3989 82.4091 22.8341 82.8177 23.1754C83.1724 23.4902 83.8187 23.833 84.7523 24.2007C85.8998 24.6618 86.7414 25.1995 87.2814 25.8169C87.8229 26.4341 88.0936 27.2035 88.0936 28.1227L88.0929 28.122Z" fill="white"/>
<path d="M95.1639 23.8635H92.8128V28.5168C92.8128 29.6998 93.2279 30.2906 94.0573 30.2906C94.4386 30.2906 94.7553 30.2583 95.0052 30.1923L95.0641 31.8091C94.644 31.9662 94.0911 32.045 93.4046 32.045C92.5622 32.045 91.9037 31.7883 91.4291 31.2757C90.9558 30.7623 90.7181 29.902 90.7181 28.6924V23.862H89.3164V22.2646H90.7181V20.5095L92.8128 19.8777V22.2639H95.1639V23.8635Z" fill="white"/>
<path d="M103.54 27.0279C103.54 26.1503 103.35 25.3968 102.968 24.7673C102.521 24.0066 101.881 23.6258 101.051 23.6258C100.196 23.6258 99.5412 24.0066 99.0945 24.7673C98.7118 25.3968 98.5222 26.164 98.5222 27.0681C98.5222 27.9464 98.7125 28.7014 99.0945 29.3294C99.5555 30.0901 100.2 30.4709 101.032 30.4709C101.848 30.4709 102.488 30.0823 102.95 29.3101C103.343 28.6663 103.54 27.9077 103.54 27.0279ZM105.752 26.9792C105.752 28.4519 105.33 29.6614 104.488 30.6071C103.607 31.5808 102.434 32.0662 100.972 32.0662C99.5613 32.0662 98.4389 31.6002 97.603 30.668C96.7657 29.7346 96.3477 28.5572 96.3477 27.1384C96.3477 25.6528 96.78 24.4368 97.6411 23.4911C98.5049 22.5439 99.6683 22.0707 101.13 22.0707C102.539 22.0707 103.671 22.5381 104.527 23.4717C105.345 24.378 105.752 25.5459 105.752 26.9799V26.9792Z" fill="white"/>
<path d="M112.69 24.1386C112.478 24.0998 112.253 24.0806 112.017 24.0806C111.267 24.0806 110.686 24.3623 110.278 24.9288C109.923 25.4278 109.746 26.0594 109.746 26.8209V31.849H107.613V25.2836C107.613 24.1795 107.592 23.1728 107.551 22.2673H109.41L109.488 24.1006H109.546C109.772 23.4704 110.127 22.962 110.614 22.582C111.089 22.2394 111.602 22.0687 112.155 22.0687C112.353 22.0687 112.531 22.0823 112.689 22.1074V24.1379H112.69V24.1386Z" fill="white"/>
<path d="M120.195 26.0527C120.21 25.421 120.07 24.8768 119.781 24.4166C119.411 23.8236 118.844 23.5281 118.082 23.5281C117.384 23.5281 116.817 23.8171 116.384 24.3964C116.028 24.8568 115.816 25.4095 115.752 26.0527H120.195V26.0534V26.0527ZM122.23 26.6047C122.23 26.9861 122.205 27.3081 122.152 27.5705H115.752C115.777 28.5177 116.086 29.2418 116.68 29.7415C117.22 30.1875 117.918 30.4105 118.774 30.4105C119.721 30.4105 120.585 30.2599 121.363 29.9581L121.697 31.4358C120.789 31.8309 119.716 32.0274 118.478 32.0274C116.99 32.0274 115.821 31.5907 114.971 30.7167C114.123 29.8427 113.697 28.6689 113.697 27.197C113.697 25.753 114.092 24.5491 114.884 23.5898C115.712 22.5652 116.832 22.0533 118.241 22.0533C119.624 22.0533 120.672 22.5652 121.383 23.5898C121.948 24.4029 122.231 25.4095 122.231 26.6054L122.23 26.6047Z" fill="white"/>
<path d="M43.4507 7.6673C43.8967 7.38624 44.5279 7.15393 45.3444 7.15393C46.6463 7.15393 47.4614 7.81284 47.4614 8.79225C47.4614 9.60602 46.8991 10.1875 46.1314 10.3617V10.3818C46.9946 10.4894 47.6854 11.0701 47.694 11.972C47.694 13.3874 46.354 13.9108 45.1498 13.9108C44.5085 13.9108 43.8299 13.7753 43.2949 13.4641L43.5664 12.5435C43.8967 12.7185 44.5279 12.9407 45.1002 12.9407C45.9454 12.9407 46.4409 12.5342 46.4409 11.9039C46.4409 11.0708 45.595 10.8672 44.8783 10.8672H44.3627V9.97528H44.8783C45.6352 9.97528 46.2176 9.56874 46.2176 8.97651C46.2176 8.44307 45.8112 8.12401 45.1397 8.12401C44.6442 8.12401 44.1013 8.32764 43.7423 8.52122L43.4515 7.66802L43.4507 7.6673Z" fill="white"/>
<path d="M51.7407 11.4963C50.8955 11.487 50.0898 11.6613 50.0898 12.3782C50.0898 12.8435 50.3907 13.0572 50.7705 13.0572C51.256 13.0572 51.5956 12.7468 51.712 12.4083C51.7407 12.3215 51.7407 12.2334 51.7407 12.1466V11.4963ZM52.9055 12.6686C52.9055 13.0952 52.9256 13.5118 52.9837 13.8021H51.9059L51.8183 13.2787H51.7888C51.508 13.6465 51.0125 13.9089 50.3914 13.9089C49.4413 13.9089 48.9062 13.2207 48.9062 12.5036C48.9062 11.3214 49.9655 10.7112 51.7134 10.7205V10.6439C51.7134 10.3334 51.5877 9.82001 50.7519 9.82001C50.2851 9.82001 49.7997 9.96628 49.4801 10.1699L49.2474 9.39484C49.5979 9.1819 50.209 8.97827 50.9558 8.97827C52.471 8.97827 52.9076 9.93832 52.9076 10.9743V12.6686H52.9055Z" fill="white"/>
<path d="M57.8258 9.0824V10.0224H55.8927V13.803H54.6992V9.0824H57.8258Z" fill="white"/>
<path d="M60.3474 11.8261C60.3474 11.9415 60.3568 12.0483 60.3762 12.1552C60.5026 12.6391 60.9198 12.9883 61.4347 12.9883C62.1923 12.9883 62.6382 12.3588 62.6382 11.4288C62.6382 10.595 62.231 9.91675 61.4641 9.91675C60.9686 9.91675 60.5119 10.2752 60.3862 10.7979C60.3661 10.8948 60.3474 11.0016 60.3474 11.099V11.8261ZM59.1539 10.6523C59.1539 10.0329 59.1338 9.52814 59.1152 9.08217H60.1636L60.2225 9.8092H60.2426C60.593 9.27576 61.1453 8.97534 61.8641 8.97534C62.952 8.97534 63.8547 9.9067 63.8547 11.3794C63.8547 13.0851 62.7775 13.9089 61.7003 13.9089C61.1065 13.9089 60.6117 13.6572 60.369 13.2787H60.3489V15.72H59.1554V10.6516H59.1547L59.1539 10.6523Z" fill="white"/>
<path d="M66.134 9.08232L66.9799 11.6125C67.0769 11.903 67.1831 12.2614 67.2506 12.5224H67.2794C67.3469 12.2614 67.4345 11.903 67.5321 11.6018L68.2696 9.0816H69.5421L68.3572 12.3002C67.7066 14.064 67.2693 14.8484 66.7142 15.3337C66.2388 15.741 65.7527 15.8966 65.4618 15.9346L65.1904 14.9359C65.3951 14.8885 65.6371 14.781 65.8798 14.6068C66.1124 14.4605 66.3738 14.1801 66.5397 13.8596C66.5885 13.7722 66.6072 13.7048 66.6072 13.646C66.6072 13.5986 66.5972 13.5305 66.5483 13.4136L64.8105 9.0816H66.1333L66.134 9.08232Z" fill="white"/>
<path d="M71.2083 10.9925H71.7697C72.4304 10.9925 72.8096 10.73 72.8096 10.3909C72.8096 10.051 72.49 9.82875 71.9557 9.82875C71.5572 9.82875 71.1213 9.96426 70.791 10.1579L70.5267 9.45089C71.0524 9.14043 71.6929 8.99561 72.2961 8.99561C73.1011 8.99561 74.072 9.30606 74.072 10.246C74.072 10.8476 73.5191 11.1967 73.0322 11.3029V11.3315C73.6634 11.3896 74.2853 11.7675 74.2853 12.4652C74.2853 13.5607 73.0516 13.9005 72.0807 13.9005C71.4696 13.9005 70.8376 13.7543 70.373 13.484L70.6445 12.7175C70.9748 12.9025 71.4789 13.0366 71.9557 13.0467C72.6157 13.0467 72.9762 12.7656 72.9762 12.4064C72.9762 11.9023 72.4598 11.7474 71.7899 11.7474H71.2075V10.9918H71.2083V10.9925Z" fill="white"/>
<path d="M76.9266 9.0824V10.7788C76.9266 11.5244 76.8972 12.0292 76.8584 12.6881H76.8972C77.1492 12.1361 77.2842 11.7876 77.5391 11.2929L78.6931 9.08384H80.1393V13.8037H79.004V12.1181C79.004 11.3624 79.0334 11.0139 79.0823 10.122H79.0435C78.8101 10.6834 78.6544 11.0226 78.4217 11.4779C78.0619 12.1762 77.6239 13.0294 77.2174 13.8044H75.7891V9.08312H76.9266V9.0824Z" fill="white"/>
<path d="M85.457 9.0824V10.0037H84.0402V13.803H82.8467V10.0037H81.4277V9.0824H85.457Z" fill="white"/>
<path d="M89.6721 10.9428C89.6822 10.5062 89.4862 9.78917 88.6925 9.78917C87.9536 9.78917 87.642 10.4574 87.5931 10.9428H89.6721ZM87.5931 11.7774C87.6211 12.6298 88.2825 12.9984 89.0509 12.9984C89.6039 12.9984 89.9924 12.9116 90.363 12.7862L90.5375 13.6006C90.1296 13.7742 89.5665 13.9011 88.8864 13.9011C87.3526 13.9011 86.4492 12.9611 86.4492 11.5171C86.4492 10.2079 87.247 8.97754 88.7608 8.97754C90.2955 8.97754 90.7996 10.2373 90.7996 11.2741C90.7996 11.497 90.7802 11.6719 90.7608 11.7781H87.5931V11.7774Z" fill="white"/>
<path d="M96.0152 10.9925H96.5099C97.1117 10.9925 97.618 10.8276 97.618 10.3716C97.618 9.99445 97.2884 9.79083 96.5882 9.79083C96.3455 9.79083 96.1897 9.8109 96.0159 9.82954V10.9925H96.0152ZM96.0066 13.0854C96.199 13.1054 96.3462 13.1054 96.5782 13.1054C97.1218 13.1054 97.7824 12.9699 97.7824 12.4078C97.7824 11.8851 97.2597 11.7095 96.5114 11.7095H96.0073V13.0861L96.0066 13.0854ZM94.8418 9.14052C95.1929 9.08245 95.9175 9.02509 96.571 9.02509C97.3681 9.02509 98.795 9.13048 98.795 10.216C98.795 10.8176 98.3296 11.1567 97.8234 11.2635V11.2822C98.5329 11.389 99.0082 11.7762 99.0082 12.4358C99.0082 13.725 97.2999 13.8597 96.3577 13.8597C95.7559 13.8597 95.1247 13.811 94.8439 13.8016V9.14052H94.8425H94.8418Z" fill="white"/>
</svg>
