<svg width="100" height="100" viewBox="0 0 100 100" fill="none" xmlns="http://www.w3.org/2000/svg">
<path d="M20.8346 25H95.8346V75H20.8346V25ZM58.3346 37.5C61.6498 37.5 64.8293 38.817 67.1735 41.1612C69.5177 43.5054 70.8346 46.6848 70.8346 50C70.8346 53.3152 69.5177 56.4946 67.1735 58.8388C64.8293 61.183 61.6498 62.5 58.3346 62.5C55.0194 62.5 51.84 61.183 49.4958 58.8388C47.1516 56.4946 45.8346 53.3152 45.8346 50C45.8346 46.6848 47.1516 43.5054 49.4958 41.1612C51.84 38.817 55.0194 37.5 58.3346 37.5ZM37.5013 33.3333C37.5013 35.5435 36.6233 37.6631 35.0605 39.2259C33.4977 40.7887 31.3781 41.6667 29.168 41.6667V58.3333C31.3781 58.3333 33.4977 59.2113 35.0605 60.7741C36.6233 62.3369 37.5013 64.4565 37.5013 66.6667H79.168C79.168 64.4565 80.0459 62.3369 81.6087 60.7741C83.1715 59.2113 85.2912 58.3333 87.5013 58.3333V41.6667C85.2912 41.6667 83.1715 40.7887 81.6087 39.2259C80.0459 37.6631 79.168 35.5435 79.168 33.3333H37.5013ZM4.16797 41.6667H12.5013V83.3333H79.168V91.6667H4.16797V41.6667Z" fill="#18A647"/>
</svg>
