<svg width="100" height="100" viewBox="0 0 100 100" fill="none" xmlns="http://www.w3.org/2000/svg">
<path d="M54.168 79.167C54.168 77.7503 54.3346 76.3753 54.543 75.0003H12.5013V50.0003H79.168V54.167C82.0846 54.167 84.8763 54.7087 87.5013 55.6253V25.0003C87.5013 20.3753 83.793 16.667 79.168 16.667H12.5013C7.8763 16.667 4.16797 20.3753 4.16797 25.0003V75.0003C4.16797 77.2105 5.04594 79.3301 6.60875 80.8929C8.17155 82.4557 10.2912 83.3337 12.5013 83.3337H54.543C54.3346 81.9587 54.168 80.5837 54.168 79.167ZM12.5013 25.0003H79.168V33.3337H12.5013V25.0003ZM73.9596 91.667L62.5013 79.167L67.3346 74.3337L73.9596 80.9587L88.918 66.0003L93.7513 71.8753L73.9596 91.667Z" fill="#18A647"/>
</svg>
