<svg width="100" height="100" viewBox="0 0 100 100" fill="none" xmlns="http://www.w3.org/2000/svg">
<g clip-path="url(#clip0)">
<path d="M87.5013 75.0003H100.001V83.3336H87.5013V95.8336H79.168V83.3336H66.668V75.0003H79.168V62.5003H87.5013V75.0003ZM79.168 33.3337V25.0003H12.5013V33.3337H79.168ZM79.168 50.0003H12.5013V75.0003H58.3346V83.3336H12.5013C10.2912 83.3336 8.17155 82.4557 6.60875 80.8929C5.04594 79.3301 4.16797 77.2105 4.16797 75.0003V25.0003C4.16797 20.3753 7.8763 16.667 12.5013 16.667H79.168C81.3781 16.667 83.4977 17.545 85.0605 19.1078C86.6233 20.6706 87.5013 22.7902 87.5013 25.0003V54.167H79.168V50.0003Z" fill="#18A647"/>
</g>
<defs>
<clipPath id="clip0">
<rect width="100" height="100" fill="white"/>
</clipPath>
</defs>
</svg>
