<svg width="80" height="80" viewBox="0 0 80 80" fill="none" xmlns="http://www.w3.org/2000/svg">
<circle cx="40" cy="40" r="38" stroke="#4EB383" stroke-width="4"/>
<path d="M33 38C32.0111 38 31.0444 37.7068 30.2222 37.1573C29.3999 36.6079 28.759 35.827 28.3806 34.9134C28.0022 33.9998 27.9031 32.9945 28.0961 32.0246C28.289 31.0546 28.7652 30.1637 29.4645 29.4645C30.1637 28.7652 31.0546 28.289 32.0246 28.0961C32.9945 27.9031 33.9998 28.0022 34.9134 28.3806C35.827 28.759 36.6079 29.3999 37.1573 30.2222C37.7068 31.0444 38 32.0111 38 33C37.9987 34.3257 37.4715 35.5967 36.5341 36.5341C35.5967 37.4715 34.3257 37.9987 33 38ZM33 30C32.4067 30 31.8266 30.1759 31.3333 30.5056C30.8399 30.8352 30.4554 31.3038 30.2284 31.852C30.0013 32.4001 29.9419 33.0033 30.0576 33.5853C30.1734 34.1672 30.4591 34.7018 30.8787 35.1213C31.2982 35.5409 31.8328 35.8266 32.4147 35.9424C32.9967 36.0581 33.5999 35.9987 34.1481 35.7716C34.6962 35.5446 35.1648 35.1601 35.4944 34.6667C35.8241 34.1734 36 33.5933 36 33C35.9992 32.2046 35.6829 31.442 35.1204 30.8796C34.558 30.3171 33.7954 30.0008 33 30Z" fill="black"/>
<path d="M28 50.586L50.585 28L52 29.415L29.414 52L28 50.586Z" fill="black"/>
<path d="M47 52C46.0111 52 45.0444 51.7068 44.2222 51.1573C43.3999 50.6079 42.759 49.827 42.3806 48.9134C42.0022 47.9998 41.9031 46.9945 42.0961 46.0245C42.289 45.0546 42.7652 44.1637 43.4645 43.4645C44.1637 42.7652 45.0546 42.289 46.0245 42.0961C46.9945 41.9031 47.9998 42.0022 48.9134 42.3806C49.827 42.759 50.6079 43.3999 51.1573 44.2222C51.7068 45.0444 52 46.0111 52 47C51.9987 48.3257 51.4715 49.5967 50.5341 50.5341C49.5967 51.4715 48.3257 51.9987 47 52ZM47 44C46.4067 44 45.8266 44.1759 45.3333 44.5056C44.8399 44.8352 44.4554 45.3038 44.2284 45.852C44.0013 46.4001 43.9419 47.0033 44.0576 47.5853C44.1734 48.1672 44.4591 48.7018 44.8787 49.1213C45.2982 49.5409 45.8328 49.8266 46.4147 49.9424C46.9967 50.0581 47.5999 49.9987 48.1481 49.7716C48.6962 49.5446 49.1648 49.1601 49.4944 48.6667C49.8241 48.1734 50 47.5933 50 47C49.9992 46.2046 49.6829 45.442 49.1204 44.8796C48.558 44.3171 47.7954 44.0008 47 44Z" fill="black"/>
</svg>
