<svg width="80" height="80" viewBox="0 0 80 80" fill="none" xmlns="http://www.w3.org/2000/svg">
<circle cx="40" cy="40" r="38" stroke="#4EB383" stroke-width="4"/>
<path d="M40.25 26.5C44.0293 26.5 47.6539 28.0013 50.3263 30.6737C52.9987 33.3461 54.5 36.9707 54.5 40.75C54.5 44.5293 52.9987 48.1539 50.3263 50.8263C47.6539 53.4987 44.0293 55 40.25 55C36.4707 55 32.8461 53.4987 30.1737 50.8263C27.5013 48.1539 26 44.5293 26 40.75C26 36.9707 27.5013 33.3461 30.1737 30.6737C32.8461 28.0013 36.4707 26.5 40.25 26.5ZM40.25 28C36.8685 28 33.6255 29.3433 31.2344 31.7344C28.8433 34.1255 27.5 37.3685 27.5 40.75C27.5 44.1315 28.8433 47.3745 31.2344 49.7656C33.6255 52.1567 36.8685 53.5 40.25 53.5C43.6315 53.5 46.8745 52.1567 49.2656 49.7656C51.6567 47.3745 53 44.1315 53 40.75C53 37.3685 51.6567 34.1255 49.2656 31.7344C46.8745 29.3433 43.6315 28 40.25 28ZM39.5 32.5H41V40.6345L48.044 44.701L47.294 46L39.5 41.5V32.5Z" fill="black"/>
</svg>
