<svg width="80" height="80" viewBox="0 0 80 80" fill="none" xmlns="http://www.w3.org/2000/svg">
<circle cx="40" cy="40" r="38" stroke="#4EB383" stroke-width="4"/>
<path d="M39.5 28H41V31.015C45.935 31.2265 47 33.5425 47 35.5H45.5C45.5 33.5095 43.733 32.5 40.25 32.5C39.02 32.5 35 32.7445 35 35.8735C35 37.1815 35 38.6635 40.4315 40.0225L42.8405 40.75C46.64 42.1525 47 43.858 47 45.6265C47 48.448 44.723 50.266 41 50.479V53.5H39.5V50.485C34.565 50.2735 33.5 47.9575 33.5 46H35C35 47.9905 36.767 49 40.25 49C41.48 49 45.5 48.7555 45.5 45.6265C45.5 44.3185 45.5 42.8365 40.0685 41.4775L37.6595 40.75C33.86 39.3475 33.5 37.642 33.5 35.8735C33.5 33.052 35.777 31.234 39.5 31.021V28Z" fill="black"/>
</svg>
