<svg width="80" height="80" viewBox="0 0 80 80" fill="none" xmlns="http://www.w3.org/2000/svg">
<circle cx="40" cy="40" r="38" stroke="#4EB383" stroke-width="4"/>
<path d="M30.5 32.5H35V29.5L38 26.5H42.5L45.5 29.5V32.5H50C51.1935 32.5 52.3381 32.9741 53.182 33.818C54.0259 34.6619 54.5 35.8065 54.5 37V49C54.5 50.1935 54.0259 51.3381 53.182 52.182C52.3381 53.0259 51.1935 53.5 50 53.5H30.5C29.3065 53.5 28.1619 53.0259 27.318 52.182C26.4741 51.3381 26 50.1935 26 49V37C26 35.8065 26.4741 34.6619 27.318 33.818C28.1619 32.9741 29.3065 32.5 30.5 32.5V32.5ZM38.621 28L36.5 30.121V32.5H44V30.121L41.879 28H38.621ZM30.5 34C29.7044 34 28.9413 34.3161 28.3787 34.8787C27.8161 35.4413 27.5 36.2044 27.5 37V49C27.5 49.7956 27.8161 50.5587 28.3787 51.1213C28.9413 51.6839 29.7044 52 30.5 52H50C50.7956 52 51.5587 51.6839 52.1213 51.1213C52.6839 50.5587 53 49.7956 53 49V37C53 36.2044 52.6839 35.4413 52.1213 34.8787C51.5587 34.3161 50.7956 34 50 34H30.5Z" fill="black"/>
</svg>
