<svg width="85" height="85" viewBox="0 0 85 85" fill="none" xmlns="http://www.w3.org/2000/svg">
<circle cx="42.5" cy="42.5" r="40.5" stroke="#4EB383" stroke-width="4"/>
<path d="M31.3438 29.75H52.0625C53.3306 29.75 54.5467 30.2537 55.4434 31.1504C56.34 32.0471 56.8437 33.2632 56.8438 34.5312V45.6875C56.8437 46.9556 56.34 48.1717 55.4434 49.0684C54.5467 49.965 53.3306 50.4688 52.0625 50.4688H44.8779L45.6875 55.25H47.2812V56.8438H36.125V55.25H37.7188L38.5284 50.4688H31.3438C30.0757 50.4687 28.8596 49.965 27.9629 49.0684C27.0662 48.1717 26.5625 46.9556 26.5625 45.6875V34.5312C26.5625 33.2632 27.0662 32.0471 27.9629 31.1504C28.8596 30.2537 30.0757 29.75 31.3438 29.75V29.75ZM40.1221 50.4688L39.3125 55.25H44.0938L43.2841 50.4688H40.1221V50.4688ZM31.3438 31.3438C30.4984 31.3438 29.6876 31.6796 29.0898 32.2773C28.4921 32.8751 28.1562 33.6859 28.1562 34.5312V45.6875C28.1562 46.5329 28.4921 47.3436 29.0898 47.9414C29.6876 48.5392 30.4984 48.875 31.3438 48.875H52.0625C52.9079 48.875 53.7186 48.5392 54.3164 47.9414C54.9142 47.3436 55.25 46.5329 55.25 45.6875V34.5312C55.25 33.6859 54.9142 32.8751 54.3164 32.2773C53.7186 31.6796 52.9079 31.3438 52.0625 31.3438H31.3438Z" fill="black"/>
</svg>
