<svg width="80" height="80" viewBox="0 0 80 80" fill="none" xmlns="http://www.w3.org/2000/svg">
<circle cx="40" cy="40" r="38" stroke="#4EB383" stroke-width="4"/>
<path d="M30 26.5C28.8065 26.5 27.6619 26.9741 26.818 27.818C25.9741 28.6619 25.5 29.8065 25.5 31V50.5C25.5 51.6935 25.9741 52.8381 26.818 53.682C27.6619 54.5259 28.8065 55 30 55H49.5C50.6935 55 51.8381 54.5259 52.682 53.682C53.5259 52.8381 54 51.6935 54 50.5V47.845C54.4708 47.4239 54.8476 46.9085 55.1061 46.3322C55.3645 45.7559 55.4987 45.1316 55.5 44.5V37C55.4987 36.3684 55.3645 35.7441 55.1061 35.1678C54.8476 34.5915 54.4708 34.0761 54 33.655V31C54 29.8065 53.5259 28.6619 52.682 27.818C51.8381 26.9741 50.6935 26.5 49.5 26.5H30ZM30 28H49.5C50.2956 28 51.0587 28.3161 51.6213 28.8787C52.1839 29.4413 52.5 30.2044 52.5 31V32.761C52.0185 32.5894 51.5112 32.5012 51 32.5H42C40.8065 32.5 39.6619 32.9741 38.818 33.818C37.9741 34.6619 37.5 35.8065 37.5 37V44.5C37.5 45.6935 37.9741 46.8381 38.818 47.682C39.6619 48.5259 40.8065 49 42 49H51C51.5112 48.9988 52.0185 48.9106 52.5 48.739V50.5C52.5 51.2956 52.1839 52.0587 51.6213 52.6213C51.0587 53.1839 50.2956 53.5 49.5 53.5H30C29.2044 53.5 28.4413 53.1839 27.8787 52.6213C27.3161 52.0587 27 51.2956 27 50.5V31C27 30.2044 27.3161 29.4413 27.8787 28.8787C28.4413 28.3161 29.2044 28 30 28V28ZM42 34H51C51.7956 34 52.5587 34.3161 53.1213 34.8787C53.6839 35.4413 54 36.2044 54 37V44.5C54 45.2956 53.6839 46.0587 53.1213 46.6213C52.5587 47.1839 51.7956 47.5 51 47.5H42C41.2044 47.5 40.4413 47.1839 39.8787 46.6213C39.3161 46.0587 39 45.2956 39 44.5V37C39 36.2044 39.3161 35.4413 39.8787 34.8787C40.4413 34.3161 41.2044 34 42 34V34ZM45.75 37C44.7554 37 43.8016 37.3951 43.0983 38.0983C42.3951 38.8016 42 39.7554 42 40.75C42 41.7446 42.3951 42.6984 43.0983 43.4017C43.8016 44.1049 44.7554 44.5 45.75 44.5C46.7446 44.5 47.6984 44.1049 48.4017 43.4017C49.1049 42.6984 49.5 41.7446 49.5 40.75C49.5 39.7554 49.1049 38.8016 48.4017 38.0983C47.6984 37.3951 46.7446 37 45.75 37V37ZM45.75 38.5C46.0455 38.5 46.3381 38.5582 46.611 38.6713C46.884 38.7843 47.1321 38.9501 47.341 39.159C47.5499 39.3679 47.7157 39.616 47.8287 39.889C47.9418 40.1619 48 40.4545 48 40.75C48 41.0455 47.9418 41.3381 47.8287 41.611C47.7157 41.884 47.5499 42.1321 47.341 42.341C47.1321 42.5499 46.884 42.7157 46.611 42.8287C46.3381 42.9418 46.0455 43 45.75 43C45.1533 43 44.581 42.7629 44.159 42.341C43.7371 41.919 43.5 41.3467 43.5 40.75C43.5 40.1533 43.7371 39.581 44.159 39.159C44.581 38.7371 45.1533 38.5 45.75 38.5V38.5Z" fill="black"/>
</svg>
