<svg width="80" height="80" viewBox="0 0 80 80" fill="none" xmlns="http://www.w3.org/2000/svg">
<circle cx="40" cy="40" r="38" stroke="#4EB383" stroke-width="4"/>
<path d="M43 24.5H44.5C47.6826 24.5 50.7349 25.7643 52.9853 28.0147C55.2357 30.2652 56.5 33.3174 56.5 36.5V38H43V24.5ZM44.5 36.5H55C55 33.7152 53.8938 31.0445 51.9246 29.0754C49.9555 27.1062 47.2848 26 44.5 26V36.5ZM40 41H52C52 43.3734 51.2962 45.6934 49.9776 47.6668C48.6591 49.6402 46.7849 51.1783 44.5922 52.0866C42.3995 52.9948 39.9867 53.2324 37.6589 52.7694C35.3312 52.3064 33.193 51.1635 31.5147 49.4853C29.8365 47.8071 28.6936 45.6689 28.2306 43.3411C27.7676 41.0133 28.0052 38.6005 28.9135 36.4078C29.8217 34.2151 31.3598 32.3409 33.3332 31.0224C35.3066 29.7038 37.6266 29 40 29V41ZM38.5 42.5V30.605C35.8766 30.9894 33.4956 32.3518 31.835 34.4188C30.1743 36.4858 29.3569 39.1044 29.5467 41.7491C29.7366 44.3937 30.9197 46.8687 32.8585 48.6773C34.7974 50.4859 37.3486 51.4942 40 51.5C42.5253 51.5003 44.9661 50.5907 46.8752 48.9378C48.7844 47.2848 50.0339 44.9993 50.395 42.5H38.5Z" fill="black"/>
</svg>
