<svg width="22" height="24" viewBox="0 0 22 24" fill="none" xmlns="http://www.w3.org/2000/svg">
<path d="M2.99961 10.4V9.6H2.19961V10.4H2.99961ZM2.99961 16.8H2.19961V17.6H2.99961V16.8ZM18.9996 10.4H19.7996V9.6H18.9996V10.4ZM18.9996 16.8V17.6H19.7996V16.8H18.9996ZM20.5996 5.6H21.3996V5.2688L21.166 5.0336L20.5996 5.6ZM15.7996 0.8L16.366 0.2336L16.1308 0H15.7996V0.8ZM2.19961 10.4V16.8H3.79961V10.4H2.19961ZM2.99961 17.6H4.59961V16H2.99961V17.6ZM6.99961 15.2V12H5.39961V15.2H6.99961ZM4.59961 9.6H2.99961V11.2H4.59961V9.6ZM6.99961 12C6.99961 11.3635 6.74675 10.753 6.29667 10.3029C5.84658 9.85286 5.23613 9.6 4.59961 9.6V11.2C4.81178 11.2 5.01527 11.2843 5.1653 11.4343C5.31532 11.5843 5.39961 11.7878 5.39961 12H6.99961ZM4.59961 17.6C5.23613 17.6 5.84658 17.3471 6.29667 16.8971C6.74675 16.447 6.99961 15.8365 6.99961 15.2H5.39961C5.39961 15.4122 5.31532 15.6157 5.1653 15.7657C5.01527 15.9157 4.81178 16 4.59961 16V17.6ZM8.59961 12V15.2H10.1996V12H8.59961ZM13.3996 15.2V12H11.7996V15.2H13.3996ZM13.3996 12C13.3996 11.3635 13.1468 10.753 12.6967 10.3029C12.2466 9.85286 11.6361 9.6 10.9996 9.6V11.2C11.2118 11.2 11.4153 11.2843 11.5653 11.4343C11.7153 11.5843 11.7996 11.7878 11.7996 12H13.3996ZM10.9996 17.6C11.6361 17.6 12.2466 17.3471 12.6967 16.8971C13.1468 16.447 13.3996 15.8365 13.3996 15.2H11.7996C11.7996 15.4122 11.7153 15.6157 11.5653 15.7657C11.4153 15.9157 11.2118 16 10.9996 16V17.6ZM8.59961 15.2C8.59961 15.8365 8.85247 16.447 9.30255 16.8971C9.75264 17.3471 10.3631 17.6 10.9996 17.6V16C10.7874 16 10.584 15.9157 10.4339 15.7657C10.2839 15.6157 10.1996 15.4122 10.1996 15.2H8.59961ZM10.1996 12C10.1996 11.7878 10.2839 11.5843 10.4339 11.4343C10.584 11.2843 10.7874 11.2 10.9996 11.2V9.6C10.3631 9.6 9.75264 9.85286 9.30255 10.3029C8.85247 10.753 8.59961 11.3635 8.59961 12H10.1996ZM14.9996 9.6V17.6H16.5996V9.6H14.9996ZM15.7996 11.2H18.9996V9.6H15.7996V11.2ZM18.1996 10.4V12.8H19.7996V10.4H18.1996ZM15.7996 17.6H18.9996V16H15.7996V17.6ZM19.7996 16.8V14.4H18.1996V16.8H19.7996ZM2.19961 8V2.4H0.599609V8H2.19961ZM19.7996 5.6V8H21.3996V5.6H19.7996ZM2.99961 1.6H15.7996V0H2.99961V1.6ZM15.2332 1.3664L20.0332 6.1664L21.166 5.0336L16.366 0.2336L15.2332 1.3664ZM2.19961 2.4C2.19961 2.18783 2.2839 1.98434 2.43392 1.83431C2.58395 1.68429 2.78744 1.6 2.99961 1.6V0C2.36309 0 1.75264 0.252856 1.30255 0.702944C0.852466 1.15303 0.599609 1.76348 0.599609 2.4H2.19961ZM0.599609 19.2V21.6H2.19961V19.2H0.599609ZM2.99961 24H18.9996V22.4H2.99961V24ZM21.3996 21.6V19.2H19.7996V21.6H21.3996ZM18.9996 24C19.6361 24 20.2466 23.7471 20.6967 23.2971C21.1468 22.847 21.3996 22.2365 21.3996 21.6H19.7996C19.7996 21.8122 19.7153 22.0157 19.5653 22.1657C19.4153 22.3157 19.2118 22.4 18.9996 22.4V24ZM0.599609 21.6C0.599609 22.2365 0.852466 22.847 1.30255 23.2971C1.75264 23.7471 2.36309 24 2.99961 24V22.4C2.78744 22.4 2.58395 22.3157 2.43392 22.1657C2.2839 22.0157 2.19961 21.8122 2.19961 21.6H0.599609Z" fill="#19BB4F"/>
</svg>
