<svg width="100" height="35" viewBox="0 0 100 35" fill="none" xmlns="http://www.w3.org/2000/svg">
<rect width="100" height="35" fill="#0A7E3D"/>
<path fill-rule="evenodd" clip-rule="evenodd" d="M18.926 17.9872V17.6957L6.53606 5.32471L6.46206 5.39767C6.17206 5.70532 6 6.18247 6 6.80061V28.882C6 29.5011 6.17206 29.9782 6.46206 30.2847L6.53606 30.3565L18.926 17.9869V17.9872Z" fill="#00D9FF"/>
<path fill-rule="evenodd" clip-rule="evenodd" d="M18.9258 17.6958V17.8414V17.9871L23.055 22.1116L23.1489 22.0598L28.0421 19.2839C29.439 18.4904 29.439 17.1923 28.0421 16.4005L23.1489 13.6237L23.0559 13.5708L18.9258 17.6957V17.6958Z" fill="#FFCD00"/>
<path fill-rule="evenodd" clip-rule="evenodd" d="M6.46104 30.2847C6.92194 30.7709 7.68304 30.832 8.53993 30.3467L23.148 22.0586L18.9249 17.8413L6.46094 30.2847H6.46104Z" fill="#FA3746"/>
<path fill-rule="evenodd" clip-rule="evenodd" d="M7.43504 5H7.41914H7.40124C7.02474 5.00427 6.70194 5.14265 6.46094 5.39738L18.9249 17.8411L23.148 13.6234L8.53993 5.33657C8.14423 5.11154 7.76894 5.0035 7.43504 5.00011V5Z" fill="#00F076"/>
<path d="M41.1494 10.5312C41.1494 11 40.9997 11.3809 40.7002 11.6738C40.404 11.9668 39.9938 12.1523 39.4697 12.2305V12.2695C40.0654 12.3509 40.5163 12.5381 40.8223 12.8311C41.1315 13.124 41.2861 13.5065 41.2861 13.9785C41.2861 14.6458 41.0371 15.1667 40.5391 15.541C40.041 15.9121 39.3379 16.0977 38.4297 16.0977C37.5996 16.0977 36.9193 15.9691 36.3887 15.7119V14.9404C36.7012 15.0902 37.0381 15.2057 37.3994 15.2871C37.764 15.3685 38.1139 15.4092 38.4492 15.4092C39.0938 15.4092 39.5804 15.2871 39.9092 15.043C40.2412 14.7988 40.4072 14.4473 40.4072 13.9883C40.4072 13.5521 40.2233 13.2217 39.8555 12.9971C39.4909 12.7725 38.9456 12.6602 38.2197 12.6602H37.1553V11.9619H38.1758C38.8431 11.9619 39.359 11.8431 39.7236 11.6055C40.0915 11.3646 40.2754 11.0293 40.2754 10.5996C40.2754 10.2513 40.1436 9.97298 39.8799 9.76465C39.6162 9.55632 39.2614 9.45215 38.8154 9.45215C38.4574 9.45215 38.1335 9.49284 37.8438 9.57422C37.554 9.6556 37.2188 9.81673 36.8379 10.0576L36.4277 9.50098C36.7565 9.25684 37.1243 9.07292 37.5312 8.94922C37.9414 8.82227 38.3662 8.75879 38.8057 8.75879C39.5381 8.75879 40.111 8.91992 40.5244 9.24219C40.9411 9.5612 41.1494 9.99089 41.1494 10.5312ZM45.9883 16L45.8271 15.2383H45.7881C45.5212 15.5736 45.2542 15.8014 44.9873 15.9219C44.7236 16.0391 44.3932 16.0977 43.9961 16.0977C43.4655 16.0977 43.0488 15.9609 42.7461 15.6875C42.4466 15.4141 42.2969 15.0251 42.2969 14.5205C42.2969 13.4398 43.1611 12.8734 44.8896 12.8213L45.7979 12.792V12.46C45.7979 12.04 45.7067 11.7308 45.5244 11.5322C45.3454 11.3304 45.0573 11.2295 44.6602 11.2295C44.2142 11.2295 43.7096 11.3662 43.1465 11.6396L42.8975 11.0195C43.1611 10.8763 43.4492 10.764 43.7617 10.6826C44.0775 10.6012 44.3932 10.5605 44.709 10.5605C45.347 10.5605 45.819 10.7021 46.125 10.9854C46.4342 11.2686 46.5889 11.7227 46.5889 12.3477V16H45.9883ZM44.1572 15.4287C44.6618 15.4287 45.0573 15.2904 45.3438 15.0137C45.6335 14.737 45.7783 14.3496 45.7783 13.8516V13.3682L44.9678 13.4023C44.3232 13.4251 43.8577 13.526 43.5713 13.7051C43.2881 13.8809 43.1465 14.1559 43.1465 14.5303C43.1465 14.8232 43.2344 15.0462 43.4102 15.1992C43.5892 15.3522 43.8382 15.4287 44.1572 15.4287ZM51.4863 11.3418H49.0742V16H48.2637V10.6484H51.4863V11.3418ZM55.041 16.0977C54.6927 16.0977 54.3737 16.0342 54.084 15.9072C53.7975 15.777 53.5566 15.5785 53.3613 15.3115H53.3027C53.3418 15.624 53.3613 15.9202 53.3613 16.2002V18.4023H52.5508V10.6484H53.21L53.3223 11.3809H53.3613C53.5697 11.0879 53.8122 10.8763 54.0889 10.7461C54.3656 10.6159 54.6829 10.5508 55.041 10.5508C55.7507 10.5508 56.2975 10.7933 56.6816 11.2783C57.069 11.7633 57.2627 12.4437 57.2627 13.3193C57.2627 14.1982 57.0658 14.8818 56.6719 15.3701C56.2812 15.8551 55.7376 16.0977 55.041 16.0977ZM54.9238 11.2393C54.377 11.2393 53.9814 11.3906 53.7373 11.6934C53.4932 11.9961 53.3678 12.4779 53.3613 13.1387V13.3193C53.3613 14.0713 53.4867 14.61 53.7373 14.9355C53.988 15.2578 54.39 15.4189 54.9434 15.4189C55.4056 15.4189 55.7669 15.2318 56.0273 14.8574C56.291 14.4831 56.4229 13.9671 56.4229 13.3096C56.4229 12.6423 56.291 12.1312 56.0273 11.7764C55.7669 11.4183 55.3991 11.2393 54.9238 11.2393ZM57.834 10.6484H58.7031L59.875 13.7002C60.1322 14.3968 60.2917 14.8997 60.3535 15.209H60.3926C60.4349 15.043 60.5228 14.7598 60.6562 14.3594C60.793 13.9557 61.2357 12.7188 61.9844 10.6484H62.8535L60.5537 16.7422C60.3258 17.3444 60.0589 17.7708 59.7529 18.0215C59.4502 18.2754 59.0775 18.4023 58.6348 18.4023C58.3874 18.4023 58.1432 18.3747 57.9023 18.3193V17.6699C58.0814 17.709 58.2816 17.7285 58.5029 17.7285C59.0596 17.7285 59.4567 17.416 59.6943 16.791L59.9922 16.0293L57.834 10.6484ZM64.7432 12.8701C65.7555 12.8701 66.2617 12.5902 66.2617 12.0303C66.2617 11.5029 65.8516 11.2393 65.0312 11.2393C64.7806 11.2393 64.5527 11.262 64.3477 11.3076C64.1426 11.3532 63.874 11.4443 63.542 11.5811L63.2539 10.9219C63.8073 10.6745 64.4111 10.5508 65.0654 10.5508C65.6807 10.5508 66.1657 10.6777 66.5205 10.9316C66.8753 11.1823 67.0527 11.5257 67.0527 11.9619C67.0527 12.5609 66.7191 12.9531 66.0518 13.1387V13.1777C66.4619 13.2982 66.7614 13.4707 66.9502 13.6953C67.139 13.9167 67.2334 14.195 67.2334 14.5303C67.2334 15.0251 67.0332 15.4108 66.6328 15.6875C66.2357 15.9609 65.6855 16.0977 64.9824 16.0977C64.2109 16.0977 63.6152 15.9821 63.1953 15.751V15.0088C63.791 15.2887 64.3932 15.4287 65.002 15.4287C65.4707 15.4287 65.8239 15.349 66.0615 15.1895C66.3024 15.0267 66.4229 14.7939 66.4229 14.4912C66.4229 13.8695 65.9167 13.5586 64.9043 13.5586H64.1621V12.8701H64.7432ZM69.3184 10.6484V14.042L69.2842 14.9307L69.2695 15.209L72.165 10.6484H73.1758V16H72.4189V12.7285L72.4336 12.084L72.458 11.4492L69.5674 16H68.5566V10.6484H69.3184ZM78.5029 11.3418H76.7646V16H75.9541V11.3418H74.2354V10.6484H78.5029V11.3418ZM81.8232 16.0977C81.0322 16.0977 80.4072 15.8568 79.9482 15.375C79.4925 14.8932 79.2646 14.2243 79.2646 13.3682C79.2646 12.5055 79.4762 11.8203 79.8994 11.3125C80.3258 10.8047 80.8971 10.5508 81.6133 10.5508C82.2839 10.5508 82.8145 10.7721 83.2051 11.2148C83.5957 11.6543 83.791 12.2354 83.791 12.958V13.4707H80.1045C80.1208 14.099 80.2786 14.5758 80.5781 14.9014C80.8809 15.2269 81.3057 15.3896 81.8525 15.3896C82.4287 15.3896 82.9984 15.2692 83.5615 15.0283V15.751C83.2751 15.8747 83.0033 15.9626 82.7461 16.0146C82.4922 16.07 82.1846 16.0977 81.8232 16.0977ZM81.6035 11.2295C81.1738 11.2295 80.8304 11.3695 80.5732 11.6494C80.3193 11.9294 80.1696 12.3167 80.124 12.8115H82.9219C82.9219 12.3005 82.8079 11.9098 82.5801 11.6396C82.3522 11.3662 82.0267 11.2295 81.6035 11.2295ZM92.1162 11.9912C92.1162 12.3395 92.0153 12.6048 91.8135 12.7871C91.6149 12.9661 91.335 13.0866 90.9736 13.1484V13.1924C91.4294 13.2542 91.7614 13.3877 91.9697 13.5928C92.1813 13.7979 92.2871 14.0811 92.2871 14.4424C92.2871 14.9404 92.1032 15.3245 91.7354 15.5947C91.3708 15.8649 90.8369 16 90.1338 16H87.7754V10.6484H90.124C91.4521 10.6484 92.1162 11.096 92.1162 11.9912ZM91.4766 14.3887C91.4766 14.099 91.3659 13.889 91.1445 13.7588C90.9264 13.6253 90.5635 13.5586 90.0557 13.5586H88.5859V15.3213H90.0752C91.0094 15.3213 91.4766 15.0104 91.4766 14.3887ZM91.3252 12.0693C91.3252 11.8089 91.2243 11.625 91.0225 11.5176C90.8239 11.4069 90.5212 11.3516 90.1143 11.3516H88.5859V12.8604H89.958C90.4593 12.8604 90.8125 12.7985 91.0176 12.6748C91.2227 12.5511 91.3252 12.3493 91.3252 12.0693ZM40.1484 24.2598H42.5752V27.7314C42.1976 27.8519 41.8135 27.943 41.4229 28.0049C41.0322 28.0667 40.5798 28.0977 40.0654 28.0977C38.9847 28.0977 38.1432 27.777 37.541 27.1357C36.9388 26.4912 36.6377 25.5895 36.6377 24.4307C36.6377 23.6885 36.7858 23.0391 37.082 22.4824C37.3815 21.9225 37.8112 21.4961 38.3711 21.2031C38.931 20.9069 39.5869 20.7588 40.3389 20.7588C41.1006 20.7588 41.8102 20.8988 42.4678 21.1787L42.1455 21.9111C41.501 21.6377 40.8809 21.501 40.2852 21.501C39.416 21.501 38.7373 21.7598 38.249 22.2773C37.7607 22.7949 37.5166 23.5127 37.5166 24.4307C37.5166 25.3942 37.751 26.125 38.2197 26.623C38.6917 27.1211 39.3835 27.3701 40.2949 27.3701C40.7897 27.3701 41.2731 27.3132 41.7451 27.1992V25.002H40.1484V24.2598ZM48.791 25.3193C48.791 26.1917 48.5713 26.8737 48.1318 27.3652C47.6924 27.8535 47.0853 28.0977 46.3105 28.0977C45.832 28.0977 45.4072 27.9854 45.0361 27.7607C44.665 27.5361 44.3786 27.2139 44.1768 26.7939C43.9749 26.374 43.874 25.8825 43.874 25.3193C43.874 24.4469 44.0921 23.7682 44.5283 23.2832C44.9645 22.7949 45.57 22.5508 46.3447 22.5508C47.0934 22.5508 47.6875 22.7998 48.127 23.2979C48.5697 23.7959 48.791 24.4697 48.791 25.3193ZM44.7139 25.3193C44.7139 26.0029 44.8506 26.5238 45.124 26.8818C45.3975 27.2399 45.7995 27.4189 46.3301 27.4189C46.8607 27.4189 47.2627 27.2415 47.5361 26.8867C47.8128 26.5286 47.9512 26.0062 47.9512 25.3193C47.9512 24.639 47.8128 24.123 47.5361 23.7715C47.2627 23.4167 46.8574 23.2393 46.3203 23.2393C45.7897 23.2393 45.3893 23.4134 45.1191 23.7617C44.849 24.11 44.7139 24.6292 44.7139 25.3193ZM54.8359 25.3193C54.8359 26.1917 54.6162 26.8737 54.1768 27.3652C53.7373 27.8535 53.1302 28.0977 52.3555 28.0977C51.877 28.0977 51.4521 27.9854 51.0811 27.7607C50.71 27.5361 50.4235 27.2139 50.2217 26.7939C50.0199 26.374 49.9189 25.8825 49.9189 25.3193C49.9189 24.4469 50.137 23.7682 50.5732 23.2832C51.0094 22.7949 51.6149 22.5508 52.3896 22.5508C53.1383 22.5508 53.7324 22.7998 54.1719 23.2979C54.6146 23.7959 54.8359 24.4697 54.8359 25.3193ZM50.7588 25.3193C50.7588 26.0029 50.8955 26.5238 51.1689 26.8818C51.4424 27.2399 51.8444 27.4189 52.375 27.4189C52.9056 27.4189 53.3076 27.2415 53.5811 26.8867C53.8577 26.5286 53.9961 26.0062 53.9961 25.3193C53.9961 24.639 53.8577 24.123 53.5811 23.7715C53.3076 23.4167 52.9023 23.2393 52.3652 23.2393C51.8346 23.2393 51.4342 23.4134 51.1641 23.7617C50.8939 24.11 50.7588 24.6292 50.7588 25.3193ZM60.6416 22.6484V23.1611L59.6504 23.2783C59.7415 23.3923 59.8229 23.542 59.8945 23.7275C59.9661 23.9098 60.002 24.1165 60.002 24.3477C60.002 24.8717 59.8229 25.29 59.4648 25.6025C59.1068 25.915 58.6152 26.0713 57.9902 26.0713C57.8307 26.0713 57.681 26.0583 57.541 26.0322C57.196 26.2145 57.0234 26.444 57.0234 26.7207C57.0234 26.8672 57.0837 26.9762 57.2041 27.0479C57.3245 27.1162 57.5312 27.1504 57.8242 27.1504H58.7715C59.3509 27.1504 59.7952 27.2725 60.1045 27.5166C60.417 27.7607 60.5732 28.1156 60.5732 28.5811C60.5732 29.1735 60.3356 29.6243 59.8604 29.9336C59.3851 30.2461 58.6917 30.4023 57.7803 30.4023C57.0804 30.4023 56.54 30.2721 56.1592 30.0117C55.7816 29.7513 55.5928 29.3835 55.5928 28.9082C55.5928 28.5827 55.6969 28.3011 55.9053 28.0635C56.1136 27.8258 56.4066 27.6647 56.7842 27.5801C56.6475 27.5182 56.5319 27.4222 56.4375 27.292C56.3464 27.1618 56.3008 27.0104 56.3008 26.8379C56.3008 26.6426 56.3529 26.4717 56.457 26.3252C56.5612 26.1787 56.7256 26.0371 56.9502 25.9004C56.6735 25.7865 56.4473 25.5928 56.2715 25.3193C56.099 25.0459 56.0127 24.7334 56.0127 24.3818C56.0127 23.7959 56.1885 23.3451 56.54 23.0293C56.8916 22.7103 57.3896 22.5508 58.0342 22.5508C58.3141 22.5508 58.5664 22.5833 58.791 22.6484H60.6416ZM56.374 28.8984C56.374 29.1882 56.4961 29.4079 56.7402 29.5576C56.9844 29.7074 57.3343 29.7822 57.79 29.7822C58.4704 29.7822 58.9733 29.6797 59.2988 29.4746C59.6276 29.2728 59.792 28.9977 59.792 28.6494C59.792 28.3597 59.7025 28.1579 59.5234 28.0439C59.3444 27.9333 59.0075 27.8779 58.5127 27.8779H57.541C57.1732 27.8779 56.8867 27.9658 56.6816 28.1416C56.4766 28.3174 56.374 28.5697 56.374 28.8984ZM56.8135 24.3623C56.8135 24.7367 56.9193 25.0199 57.1309 25.2119C57.3424 25.404 57.637 25.5 58.0146 25.5C58.8057 25.5 59.2012 25.1159 59.2012 24.3477C59.2012 23.5436 58.8008 23.1416 58 23.1416C57.6191 23.1416 57.3262 23.2441 57.1211 23.4492C56.916 23.6543 56.8135 23.9587 56.8135 24.3623ZM62.5508 28H61.7402V20.4023H62.5508V28ZM66.5303 28.0977C65.7393 28.0977 65.1143 27.8568 64.6553 27.375C64.1995 26.8932 63.9717 26.2243 63.9717 25.3682C63.9717 24.5055 64.1833 23.8203 64.6064 23.3125C65.0329 22.8047 65.6042 22.5508 66.3203 22.5508C66.9909 22.5508 67.5215 22.7721 67.9121 23.2148C68.3027 23.6543 68.498 24.2354 68.498 24.958V25.4707H64.8115C64.8278 26.099 64.9857 26.5758 65.2852 26.9014C65.5879 27.2269 66.0127 27.3896 66.5596 27.3896C67.1357 27.3896 67.7054 27.2692 68.2686 27.0283V27.751C67.9821 27.8747 67.7103 27.9626 67.4531 28.0146C67.1992 28.07 66.8916 28.0977 66.5303 28.0977ZM66.3105 23.2295C65.8809 23.2295 65.5374 23.3695 65.2803 23.6494C65.0264 23.9294 64.8766 24.3167 64.8311 24.8115H67.6289C67.6289 24.3005 67.515 23.9098 67.2871 23.6396C67.0592 23.3662 66.7337 23.2295 66.3105 23.2295ZM77.1309 22.9414C77.1309 23.6641 76.8835 24.2207 76.3887 24.6113C75.8971 24.9987 75.1924 25.1924 74.2744 25.1924H73.4346V28H72.6045V20.8613H74.4551C76.2389 20.8613 77.1309 21.5547 77.1309 22.9414ZM73.4346 24.4795H74.1816C74.9173 24.4795 75.4495 24.3607 75.7783 24.123C76.1071 23.8854 76.2715 23.5046 76.2715 22.9805C76.2715 22.5085 76.1169 22.1569 75.8076 21.9258C75.4984 21.6947 75.0166 21.5791 74.3623 21.5791H73.4346V24.4795ZM79.3184 28H78.5078V20.4023H79.3184V28ZM84.3281 28L84.167 27.2383H84.1279C83.861 27.5736 83.5941 27.8014 83.3271 27.9219C83.0635 28.0391 82.7331 28.0977 82.3359 28.0977C81.8053 28.0977 81.3887 27.9609 81.0859 27.6875C80.7865 27.4141 80.6367 27.0251 80.6367 26.5205C80.6367 25.4398 81.501 24.8734 83.2295 24.8213L84.1377 24.792V24.46C84.1377 24.04 84.0465 23.7308 83.8643 23.5322C83.6852 23.3304 83.3971 23.2295 83 23.2295C82.554 23.2295 82.0495 23.3662 81.4863 23.6396L81.2373 23.0195C81.501 22.8763 81.7891 22.764 82.1016 22.6826C82.4173 22.6012 82.7331 22.5605 83.0488 22.5605C83.6868 22.5605 84.1589 22.7021 84.4648 22.9854C84.7741 23.2686 84.9287 23.7227 84.9287 24.3477V28H84.3281ZM82.4971 27.4287C83.0016 27.4287 83.3971 27.2904 83.6836 27.0137C83.9733 26.737 84.1182 26.3496 84.1182 25.8516V25.3682L83.3076 25.4023C82.6631 25.4251 82.1976 25.526 81.9111 25.7051C81.6279 25.8809 81.4863 26.1559 81.4863 26.5303C81.4863 26.8232 81.5742 27.0462 81.75 27.1992C81.929 27.3522 82.1781 27.4287 82.4971 27.4287ZM85.7539 22.6484H86.623L87.7949 25.7002C88.0521 26.3968 88.2116 26.8997 88.2734 27.209H88.3125C88.3548 27.043 88.4427 26.7598 88.5762 26.3594C88.7129 25.9557 89.1556 24.7188 89.9043 22.6484H90.7734L88.4736 28.7422C88.2458 29.3444 87.9788 29.7708 87.6729 30.0215C87.3701 30.2754 86.9974 30.4023 86.5547 30.4023C86.3073 30.4023 86.0632 30.3747 85.8223 30.3193V29.6699C86.0013 29.709 86.2015 29.7285 86.4229 29.7285C86.9795 29.7285 87.3766 29.416 87.6143 28.791L87.9121 28.0293L85.7539 22.6484Z" fill="white"/>
</svg>
