<svg width="100" height="35" viewBox="0 0 100 35" fill="none" xmlns="http://www.w3.org/2000/svg">
<rect width="100" height="35" fill="#0A7E3D"/>
<path d="M24.3457 17.5491C24.317 14.3298 26.9862 12.7647 27.109 12.6916C25.5966 10.4911 23.2535 10.1907 22.4298 10.167C20.4615 9.96055 18.552 11.3422 17.5503 11.3422C16.5277 11.3422 14.9837 10.1871 13.3199 10.2208C11.1785 10.2545 9.17571 11.4914 8.07701 13.4129C5.80921 17.3304 7.50041 23.0879 9.67261 26.2548C10.7591 27.8064 12.0287 29.5379 13.6912 29.4763C15.3169 29.4096 15.9245 28.4423 17.8863 28.4423C19.831 28.4423 20.4011 29.4763 22.0959 29.4368C23.8409 29.4096 24.9396 27.8795 25.9887 26.3143C27.244 24.5376 27.7481 22.786 27.7682 22.6964C27.728 22.6828 24.3809 21.4073 24.3464 17.5499L24.3457 17.5491Z" fill="white"/>
<path d="M21.1444 8.08395C22.0183 6.99199 22.6165 5.50711 22.4506 4C21.1853 4.05664 19.6026 4.87401 18.6906 5.94161C17.8842 6.88229 17.1639 8.42382 17.3499 9.87426C18.7718 9.98039 20.2317 9.15797 21.1444 8.08325V8.08395Z" fill="white"/>
<path d="M40.3213 9.53125C40.3213 10 40.1715 10.3809 39.8721 10.6738C39.5758 10.9668 39.1657 11.1523 38.6416 11.2305V11.2695C39.2373 11.3509 39.6882 11.5381 39.9941 11.8311C40.3034 12.124 40.458 12.5065 40.458 12.9785C40.458 13.6458 40.209 14.1667 39.7109 14.541C39.2129 14.9121 38.5098 15.0977 37.6016 15.0977C36.7715 15.0977 36.0911 14.9691 35.5605 14.7119V13.9404C35.873 14.0902 36.21 14.2057 36.5713 14.2871C36.9359 14.3685 37.2858 14.4092 37.6211 14.4092C38.2656 14.4092 38.7523 14.2871 39.0811 14.043C39.4131 13.7988 39.5791 13.4473 39.5791 12.9883C39.5791 12.5521 39.3952 12.2217 39.0273 11.9971C38.6628 11.7725 38.1175 11.6602 37.3916 11.6602H36.3271V10.9619H37.3477C38.015 10.9619 38.5309 10.8431 38.8955 10.6055C39.2633 10.3646 39.4473 10.0293 39.4473 9.59961C39.4473 9.2513 39.3154 8.97298 39.0518 8.76465C38.7881 8.55632 38.4333 8.45215 37.9873 8.45215C37.6292 8.45215 37.3053 8.49284 37.0156 8.57422C36.7259 8.6556 36.3906 8.81673 36.0098 9.05762L35.5996 8.50098C35.9284 8.25684 36.2962 8.07292 36.7031 7.94922C37.1133 7.82227 37.5381 7.75879 37.9775 7.75879C38.71 7.75879 39.2829 7.91992 39.6963 8.24219C40.113 8.5612 40.3213 8.99089 40.3213 9.53125ZM45.1602 15L44.999 14.2383H44.96C44.693 14.5736 44.4261 14.8014 44.1592 14.9219C43.8955 15.0391 43.5651 15.0977 43.168 15.0977C42.6374 15.0977 42.2207 14.9609 41.918 14.6875C41.6185 14.4141 41.4688 14.0251 41.4688 13.5205C41.4688 12.4398 42.333 11.8734 44.0615 11.8213L44.9697 11.792V11.46C44.9697 11.04 44.8786 10.7308 44.6963 10.5322C44.5173 10.3304 44.2292 10.2295 43.832 10.2295C43.3861 10.2295 42.8815 10.3662 42.3184 10.6396L42.0693 10.0195C42.333 9.8763 42.6211 9.764 42.9336 9.68262C43.2493 9.60124 43.5651 9.56055 43.8809 9.56055C44.5189 9.56055 44.9909 9.70215 45.2969 9.98535C45.6061 10.2686 45.7607 10.7227 45.7607 11.3477V15H45.1602ZM43.3291 14.4287C43.8337 14.4287 44.2292 14.2904 44.5156 14.0137C44.8053 13.737 44.9502 13.3496 44.9502 12.8516V12.3682L44.1396 12.4023C43.4951 12.4251 43.0296 12.526 42.7432 12.7051C42.46 12.8809 42.3184 13.1559 42.3184 13.5303C42.3184 13.8232 42.4062 14.0462 42.582 14.1992C42.7611 14.3522 43.0101 14.4287 43.3291 14.4287ZM50.6582 10.3418H48.2461V15H47.4355V9.64844H50.6582V10.3418ZM54.2129 15.0977C53.8646 15.0977 53.5456 15.0342 53.2559 14.9072C52.9694 14.777 52.7285 14.5785 52.5332 14.3115H52.4746C52.5137 14.624 52.5332 14.9202 52.5332 15.2002V17.4023H51.7227V9.64844H52.3818L52.4941 10.3809H52.5332C52.7415 10.0879 52.984 9.8763 53.2607 9.74609C53.5374 9.61589 53.8548 9.55078 54.2129 9.55078C54.9225 9.55078 55.4694 9.79329 55.8535 10.2783C56.2409 10.7633 56.4346 11.4437 56.4346 12.3193C56.4346 13.1982 56.2376 13.8818 55.8438 14.3701C55.4531 14.8551 54.9095 15.0977 54.2129 15.0977ZM54.0957 10.2393C53.5488 10.2393 53.1533 10.3906 52.9092 10.6934C52.665 10.9961 52.5397 11.4779 52.5332 12.1387V12.3193C52.5332 13.0713 52.6585 13.61 52.9092 13.9355C53.1598 14.2578 53.5618 14.4189 54.1152 14.4189C54.5775 14.4189 54.9388 14.2318 55.1992 13.8574C55.4629 13.4831 55.5947 12.9671 55.5947 12.3096C55.5947 11.6423 55.4629 11.1312 55.1992 10.7764C54.9388 10.4183 54.571 10.2393 54.0957 10.2393ZM57.0059 9.64844H57.875L59.0469 12.7002C59.304 13.3968 59.4635 13.8997 59.5254 14.209H59.5645C59.6068 14.043 59.6947 13.7598 59.8281 13.3594C59.9648 12.9557 60.4076 11.7188 61.1562 9.64844H62.0254L59.7256 15.7422C59.4977 16.3444 59.2308 16.7708 58.9248 17.0215C58.6221 17.2754 58.2493 17.4023 57.8066 17.4023C57.5592 17.4023 57.3151 17.3747 57.0742 17.3193V16.6699C57.2533 16.709 57.4535 16.7285 57.6748 16.7285C58.2314 16.7285 58.6286 16.416 58.8662 15.791L59.1641 15.0293L57.0059 9.64844ZM63.915 11.8701C64.9274 11.8701 65.4336 11.5902 65.4336 11.0303C65.4336 10.5029 65.0234 10.2393 64.2031 10.2393C63.9525 10.2393 63.7246 10.262 63.5195 10.3076C63.3145 10.3532 63.0459 10.4443 62.7139 10.5811L62.4258 9.92188C62.9792 9.67448 63.583 9.55078 64.2373 9.55078C64.8525 9.55078 65.3376 9.67773 65.6924 9.93164C66.0472 10.1823 66.2246 10.5257 66.2246 10.9619C66.2246 11.5609 65.891 11.9531 65.2236 12.1387V12.1777C65.6338 12.2982 65.9333 12.4707 66.1221 12.6953C66.3109 12.9167 66.4053 13.195 66.4053 13.5303C66.4053 14.0251 66.2051 14.4108 65.8047 14.6875C65.4076 14.9609 64.8574 15.0977 64.1543 15.0977C63.3828 15.0977 62.7871 14.9821 62.3672 14.751V14.0088C62.9629 14.2887 63.5651 14.4287 64.1738 14.4287C64.6426 14.4287 64.9958 14.349 65.2334 14.1895C65.4743 14.0267 65.5947 13.7939 65.5947 13.4912C65.5947 12.8695 65.0885 12.5586 64.0762 12.5586H63.334V11.8701H63.915ZM68.4902 9.64844V13.042L68.4561 13.9307L68.4414 14.209L71.3369 9.64844H72.3477V15H71.5908V11.7285L71.6055 11.084L71.6299 10.4492L68.7393 15H67.7285V9.64844H68.4902ZM77.6748 10.3418H75.9365V15H75.126V10.3418H73.4072V9.64844H77.6748V10.3418ZM80.9951 15.0977C80.2041 15.0977 79.5791 14.8568 79.1201 14.375C78.6644 13.8932 78.4365 13.2243 78.4365 12.3682C78.4365 11.5055 78.6481 10.8203 79.0713 10.3125C79.4977 9.80469 80.069 9.55078 80.7852 9.55078C81.4557 9.55078 81.9863 9.77214 82.377 10.2148C82.7676 10.6543 82.9629 11.2354 82.9629 11.958V12.4707H79.2764C79.2926 13.099 79.4505 13.5758 79.75 13.9014C80.0527 14.2269 80.4775 14.3896 81.0244 14.3896C81.6006 14.3896 82.1702 14.2692 82.7334 14.0283V14.751C82.4469 14.8747 82.1751 14.9626 81.918 15.0146C81.6641 15.07 81.3564 15.0977 80.9951 15.0977ZM80.7754 10.2295C80.3457 10.2295 80.0023 10.3695 79.7451 10.6494C79.4912 10.9294 79.3415 11.3167 79.2959 11.8115H82.0938C82.0938 11.3005 81.9798 10.9098 81.752 10.6396C81.5241 10.3662 81.1986 10.2295 80.7754 10.2295ZM91.2881 10.9912C91.2881 11.3395 91.1872 11.6048 90.9854 11.7871C90.7868 11.9661 90.5068 12.0866 90.1455 12.1484V12.1924C90.6012 12.2542 90.9333 12.3877 91.1416 12.5928C91.3532 12.7979 91.459 13.0811 91.459 13.4424C91.459 13.9404 91.2751 14.3245 90.9072 14.5947C90.5426 14.8649 90.0088 15 89.3057 15H86.9473V9.64844H89.2959C90.624 9.64844 91.2881 10.096 91.2881 10.9912ZM90.6484 13.3887C90.6484 13.099 90.5378 12.889 90.3164 12.7588C90.0983 12.6253 89.7354 12.5586 89.2275 12.5586H87.7578V14.3213H89.2471C90.1813 14.3213 90.6484 14.0104 90.6484 13.3887ZM90.4971 11.0693C90.4971 10.8089 90.3962 10.625 90.1943 10.5176C89.9958 10.4069 89.693 10.3516 89.2861 10.3516H87.7578V11.8604H89.1299C89.6312 11.8604 89.9844 11.7985 90.1895 11.6748C90.3945 11.5511 90.4971 11.3493 90.4971 11.0693ZM40.668 27L39.7793 24.7295H36.918L36.0391 27H35.1992L38.0215 19.832H38.7197L41.5273 27H40.668ZM39.5205 23.9824L38.6904 21.7705C38.583 21.4906 38.4723 21.1471 38.3584 20.7402C38.2868 21.0527 38.1842 21.3962 38.0508 21.7705L37.2109 23.9824H39.5205ZM44.877 27.0977C44.5286 27.0977 44.2096 27.0342 43.9199 26.9072C43.6335 26.777 43.3926 26.5785 43.1973 26.3115H43.1387C43.1777 26.624 43.1973 26.9202 43.1973 27.2002V29.4023H42.3867V21.6484H43.0459L43.1582 22.3809H43.1973C43.4056 22.0879 43.6481 21.8763 43.9248 21.7461C44.2015 21.6159 44.5189 21.5508 44.877 21.5508C45.5866 21.5508 46.1335 21.7933 46.5176 22.2783C46.9049 22.7633 47.0986 23.4437 47.0986 24.3193C47.0986 25.1982 46.9017 25.8818 46.5078 26.3701C46.1172 26.8551 45.5736 27.0977 44.877 27.0977ZM44.7598 22.2393C44.2129 22.2393 43.8174 22.3906 43.5732 22.6934C43.3291 22.9961 43.2038 23.4779 43.1973 24.1387V24.3193C43.1973 25.0713 43.3226 25.61 43.5732 25.9355C43.8239 26.2578 44.2259 26.4189 44.7793 26.4189C45.2415 26.4189 45.6029 26.2318 45.8633 25.8574C46.127 25.4831 46.2588 24.9671 46.2588 24.3096C46.2588 23.6423 46.127 23.1312 45.8633 22.7764C45.6029 22.4183 45.235 22.2393 44.7598 22.2393ZM51.0098 27.0977C50.6615 27.0977 50.3424 27.0342 50.0527 26.9072C49.7663 26.777 49.5254 26.5785 49.3301 26.3115H49.2715C49.3105 26.624 49.3301 26.9202 49.3301 27.2002V29.4023H48.5195V21.6484H49.1787L49.291 22.3809H49.3301C49.5384 22.0879 49.7809 21.8763 50.0576 21.7461C50.3343 21.6159 50.6517 21.5508 51.0098 21.5508C51.7194 21.5508 52.2663 21.7933 52.6504 22.2783C53.0378 22.7633 53.2314 23.4437 53.2314 24.3193C53.2314 25.1982 53.0345 25.8818 52.6406 26.3701C52.25 26.8551 51.7064 27.0977 51.0098 27.0977ZM50.8926 22.2393C50.3457 22.2393 49.9502 22.3906 49.7061 22.6934C49.4619 22.9961 49.3366 23.4779 49.3301 24.1387V24.3193C49.3301 25.0713 49.4554 25.61 49.7061 25.9355C49.9567 26.2578 50.3587 26.4189 50.9121 26.4189C51.3743 26.4189 51.7357 26.2318 51.9961 25.8574C52.2598 25.4831 52.3916 24.9671 52.3916 24.3096C52.3916 23.6423 52.2598 23.1312 51.9961 22.7764C51.7357 22.4183 51.3678 22.2393 50.8926 22.2393ZM61.4004 25.1006C61.4004 25.7288 61.1725 26.2188 60.7168 26.5703C60.2611 26.9219 59.6426 27.0977 58.8613 27.0977C58.015 27.0977 57.3639 26.9886 56.9082 26.7705V25.9697C57.2012 26.0934 57.5202 26.1911 57.8652 26.2627C58.2103 26.3343 58.5521 26.3701 58.8906 26.3701C59.444 26.3701 59.8607 26.266 60.1406 26.0576C60.4206 25.846 60.5605 25.5531 60.5605 25.1787C60.5605 24.9313 60.5101 24.7295 60.4092 24.5732C60.3115 24.4137 60.1455 24.2673 59.9111 24.1338C59.68 24.0003 59.3268 23.849 58.8516 23.6797C58.1875 23.4421 57.7122 23.1605 57.4258 22.835C57.1426 22.5094 57.001 22.0846 57.001 21.5605C57.001 21.0104 57.2077 20.5726 57.6211 20.2471C58.0345 19.9215 58.5814 19.7588 59.2617 19.7588C59.9714 19.7588 60.624 19.889 61.2197 20.1494L60.9609 20.8721C60.3717 20.6247 59.7988 20.501 59.2422 20.501C58.8027 20.501 58.4593 20.5954 58.2119 20.7842C57.9645 20.973 57.8408 21.235 57.8408 21.5703C57.8408 21.8177 57.8864 22.0212 57.9775 22.1807C58.0687 22.3369 58.2217 22.4818 58.4365 22.6152C58.6546 22.7454 58.9867 22.8903 59.4326 23.0498C60.1813 23.3167 60.6956 23.6032 60.9756 23.9092C61.2588 24.2152 61.4004 24.6123 61.4004 25.1006ZM64.4668 26.4287C64.61 26.4287 64.7484 26.4189 64.8818 26.3994C65.0153 26.3766 65.1211 26.3538 65.1992 26.3311V26.9512C65.1113 26.9935 64.9811 27.0277 64.8086 27.0537C64.6393 27.083 64.4863 27.0977 64.3496 27.0977C63.3145 27.0977 62.7969 26.5524 62.7969 25.4619V22.2783H62.0303V21.8877L62.7969 21.5508L63.1387 20.4082H63.6074V21.6484H65.1602V22.2783H63.6074V25.4277C63.6074 25.75 63.6839 25.9974 63.8369 26.1699C63.9899 26.3424 64.1999 26.4287 64.4668 26.4287ZM70.8926 24.3193C70.8926 25.1917 70.6729 25.8737 70.2334 26.3652C69.7939 26.8535 69.1868 27.0977 68.4121 27.0977C67.9336 27.0977 67.5088 26.9854 67.1377 26.7607C66.7666 26.5361 66.4801 26.2139 66.2783 25.7939C66.0765 25.374 65.9756 24.8825 65.9756 24.3193C65.9756 23.4469 66.1937 22.7682 66.6299 22.2832C67.0661 21.7949 67.6715 21.5508 68.4463 21.5508C69.195 21.5508 69.7891 21.7998 70.2285 22.2979C70.6712 22.7959 70.8926 23.4697 70.8926 24.3193ZM66.8154 24.3193C66.8154 25.0029 66.9521 25.5238 67.2256 25.8818C67.499 26.2399 67.901 26.4189 68.4316 26.4189C68.9622 26.4189 69.3643 26.2415 69.6377 25.8867C69.9144 25.5286 70.0527 25.0062 70.0527 24.3193C70.0527 23.639 69.9144 23.123 69.6377 22.7715C69.3643 22.4167 68.959 22.2393 68.4219 22.2393C67.8913 22.2393 67.4909 22.4134 67.2207 22.7617C66.9505 23.11 66.8154 23.6292 66.8154 24.3193ZM74.7598 21.5508C74.9974 21.5508 75.2106 21.5703 75.3994 21.6094L75.2871 22.3613C75.0658 22.3125 74.8704 22.2881 74.7012 22.2881C74.2682 22.2881 73.8971 22.4639 73.5879 22.8154C73.2819 23.167 73.1289 23.6048 73.1289 24.1289V27H72.3184V21.6484H72.9873L73.0801 22.6396H73.1191C73.3177 22.2913 73.557 22.0228 73.8369 21.834C74.1169 21.6452 74.4245 21.5508 74.7598 21.5508ZM78.6611 27.0977C77.8701 27.0977 77.2451 26.8568 76.7861 26.375C76.3304 25.8932 76.1025 25.2243 76.1025 24.3682C76.1025 23.5055 76.3141 22.8203 76.7373 22.3125C77.1637 21.8047 77.735 21.5508 78.4512 21.5508C79.1217 21.5508 79.6523 21.7721 80.043 22.2148C80.4336 22.6543 80.6289 23.2354 80.6289 23.958V24.4707H76.9424C76.9587 25.099 77.1165 25.5758 77.416 25.9014C77.7188 26.2269 78.1436 26.3896 78.6904 26.3896C79.2666 26.3896 79.8363 26.2692 80.3994 26.0283V26.751C80.113 26.8747 79.8411 26.9626 79.584 27.0146C79.3301 27.07 79.0225 27.0977 78.6611 27.0977ZM78.4414 22.2295C78.0117 22.2295 77.6683 22.3695 77.4111 22.6494C77.1572 22.9294 77.0075 23.3167 76.9619 23.8115H79.7598C79.7598 23.3005 79.6458 22.9098 79.418 22.6396C79.1901 22.3662 78.8646 22.2295 78.4414 22.2295Z" fill="white"/>
</svg>
