<svg width="134" height="41" viewBox="0 0 134 41" fill="none" xmlns="http://www.w3.org/2000/svg">
<path d="M129.037 0.385986H4.96273C2.23319 0.385986 0 2.63233 0 5.37794V35.3311C0 38.0769 2.23319 40.3236 4.96273 40.3236H129.037C131.766 40.3236 134 38.0769 134 35.3311V5.37794C134 2.63233 131.766 0.385986 129.037 0.385986Z" fill="#262626"/>
<path d="M106.936 30.3389H108.802V17.8573H106.936V30.3389ZM123.742 22.3534L121.604 27.7648H121.54L119.32 22.3534H117.311L120.639 29.9167L118.74 34.124H120.686L125.818 22.3534H123.742ZM113.16 28.9212C112.55 28.9212 111.697 28.6155 111.697 27.8618C111.697 26.8981 112.759 26.5288 113.676 26.5288C114.495 26.5288 114.882 26.7054 115.38 26.9462C115.235 28.1023 114.238 28.9212 113.16 28.9212ZM113.386 22.0808C112.035 22.0808 110.636 22.6748 110.057 23.9918L111.712 24.6818C112.066 23.9918 112.726 23.7662 113.417 23.7662C114.382 23.7662 115.364 24.3441 115.38 25.3715V25.5002C115.042 25.3075 114.318 25.0192 113.434 25.0192C111.648 25.0192 109.831 25.9987 109.831 27.8288C109.831 29.4992 111.295 30.5755 112.936 30.5755C114.189 30.5755 114.882 30.0135 115.315 29.3545H115.38V30.3179H117.182V25.5335C117.182 23.3168 115.523 22.0808 113.386 22.0808ZM101.854 23.8729H99.199V19.5947H101.854C103.249 19.5947 104.041 20.7478 104.041 21.7333C104.041 22.7006 103.249 23.8729 101.854 23.8729ZM101.806 17.8572H97.3341V30.3388H99.199V25.61H101.806C103.874 25.61 105.906 24.1154 105.906 21.7332C105.906 19.3519 103.874 17.8572 101.806 17.8572ZM77.424 28.924C76.1351 28.924 75.056 27.8456 75.056 26.366C75.056 24.8694 76.1351 23.7761 77.424 23.7761C78.696 23.7761 79.6952 24.8694 79.6952 26.366C79.6952 27.8456 78.696 28.924 77.424 28.924ZM79.5659 23.0521H79.5022C79.0832 22.554 78.277 22.1025 77.2631 22.1025C75.1359 22.1025 73.1871 23.9697 73.1871 26.366C73.1871 28.7462 75.136 30.5963 77.2631 30.5963C78.277 30.5963 79.0832 30.146 79.5022 29.6318H79.5659V30.242C79.5659 31.8673 78.696 32.7351 77.2951 32.7351C76.151 32.7351 75.442 31.9152 75.1521 31.2236L73.525 31.8994C73.9921 33.0247 75.232 34.4084 77.2951 34.4084C79.486 34.4084 81.339 33.1215 81.339 29.9853V22.3601H79.5659V23.0521ZM82.6282 30.3388H84.496V17.8572H82.6282V30.3388ZM87.2509 26.2212C87.203 24.5799 88.524 23.7441 89.475 23.7441C90.216 23.7441 90.8442 24.1146 91.0542 24.6447L87.2509 26.2213V26.2212ZM93.0512 24.8055C92.696 23.8572 91.6171 22.1026 89.41 22.1026C87.2191 22.1026 85.3979 23.8251 85.3979 26.3499C85.3979 28.7305 87.203 30.5963 89.619 30.5963C91.5681 30.5963 92.696 29.4063 93.164 28.7144L91.7141 27.749C91.23 28.4569 90.57 28.9242 89.619 28.9242C88.6691 28.9242 87.9922 28.4888 87.5579 27.6362L93.2439 25.2879L93.0511 24.8056L93.0512 24.8055ZM47.743 23.4069V25.2081H52.061C51.9321 26.2213 51.593 26.9611 51.0779 27.4753C50.449 28.1033 49.4659 28.7954 47.7429 28.7954C45.084 28.7954 43.006 26.6557 43.006 24.0017C43.006 21.3479 45.0841 19.2082 47.7429 19.2082C49.177 19.2082 50.2238 19.7715 50.9968 20.4954L52.2699 19.2244C51.1899 18.1951 49.757 17.4062 47.7429 17.4062C44.1018 17.4062 41.041 20.3667 41.041 24.0018C41.041 27.6362 44.1019 30.5966 47.7429 30.5966C49.7079 30.5966 51.1899 29.9527 52.3499 28.7464C53.5421 27.5564 53.9129 25.8839 53.9129 24.5319C53.9129 24.1148 53.8809 23.7284 53.816 23.407H47.743V23.4069ZM58.8211 28.9241C57.5331 28.9241 56.4211 27.8618 56.4211 26.35C56.4211 24.8214 57.5331 23.7762 58.8211 23.7762C60.1101 23.7762 61.2221 24.8214 61.2221 26.35C61.2221 27.8619 60.1101 28.9241 58.8211 28.9241ZM58.8211 22.1026C56.4689 22.1026 54.5522 23.889 54.5522 26.3499C54.5522 28.7952 56.469 30.5963 58.8211 30.5963C61.1741 30.5963 63.091 28.7952 63.091 26.3499C63.091 23.889 61.1741 22.1026 58.8211 22.1026ZM68.1349 28.9241C66.846 28.9241 65.734 27.8618 65.734 26.35C65.734 24.8214 66.846 23.7762 68.1349 23.7762C69.4242 23.7762 70.535 24.8214 70.535 26.35C70.535 27.8619 69.4241 28.9241 68.1349 28.9241ZM68.1349 22.1026C65.783 22.1026 63.866 23.889 63.866 26.3499C63.866 28.7952 65.783 30.5963 68.1349 30.5963C70.4872 30.5963 72.4042 28.7952 72.4042 26.3499C72.4042 23.889 70.4872 22.1026 68.1349 22.1026Z" fill="white"/>
<path fill-rule="evenodd" clip-rule="evenodd" d="M22.8986 20.5017V20.2102L10.5087 7.83917L10.4347 7.91214C10.1447 8.21979 9.97266 8.69693 9.97266 9.31508V31.3965C9.97266 32.0155 10.1447 32.4927 10.4347 32.7991L10.5087 32.871L22.8986 20.5014V20.5017Z" fill="#00D9FF"/>
<path fill-rule="evenodd" clip-rule="evenodd" d="M22.8984 20.21V20.3557V20.5014L27.0276 24.6259L27.1215 24.574L32.0148 21.7982C33.4117 21.0047 33.4117 19.7066 32.0148 18.9148L27.1215 16.138L27.0285 16.0851L22.8984 20.2099V20.21Z" fill="#FFCD00"/>
<path fill-rule="evenodd" clip-rule="evenodd" d="M10.4356 32.7992C10.8965 33.2855 11.6576 33.3466 12.5145 32.8612L27.1226 24.5732L22.8995 20.3558L10.4355 32.7992H10.4356Z" fill="#FA3746"/>
<path fill-rule="evenodd" clip-rule="evenodd" d="M11.4096 7.51453H11.3937H11.3758C10.9993 7.5188 10.6765 7.65717 10.4355 7.91191L22.8995 20.3556L27.1226 16.138L12.5145 7.8511C12.1188 7.62606 11.7435 7.51803 11.4096 7.51464V7.51453Z" fill="#00F076"/>
<path d="M43.9359 12.5431C44.5613 11.5305 44.7135 10.0451 44.7135 8.87206V8.4246H46.3197V12.5431H43.9361H43.9359ZM42.2031 12.5431V14.6615H43.2089V13.4799H47.1057V14.6615H48.0777V12.5431H47.4099V7.48807H43.6823V8.79591C43.6823 10.0112 43.5556 11.4207 42.8118 12.5431H42.2033H42.2031ZM48.6693 10.4418C48.6693 12.2056 50.0047 13.5814 51.7715 13.5814C53.5381 13.5814 54.8735 12.2056 54.8735 10.4418C54.8735 8.72864 53.538 7.38683 51.7715 7.38683C50.0047 7.38683 48.6693 8.72864 48.6693 10.4418ZM49.7935 10.4418C49.7935 9.2771 50.6726 8.38242 51.7715 8.38242C52.8703 8.38242 53.7492 9.2771 53.7492 10.4418C53.7492 11.657 52.8702 12.5854 51.7715 12.5854C50.6726 12.5854 49.7935 11.657 49.7935 10.4418ZM55.6258 10.4588C55.6258 12.2225 56.8429 13.5814 58.7277 13.5814C59.8012 13.5814 60.5706 13.1339 61.0861 12.6108L60.5112 11.8257C60.0548 12.2731 59.4124 12.5854 58.7702 12.5854C57.4682 12.5854 56.7499 11.5643 56.7499 10.4418C56.7499 9.33627 57.443 8.38242 58.7616 8.38242C59.3447 8.38242 59.9788 8.65271 60.4015 9.01558L60.9253 8.20526C60.3422 7.63981 59.4969 7.38672 58.7109 7.38672C56.9021 7.38672 55.6257 8.72009 55.6257 10.4586L55.6258 10.4588ZM63.3851 13.48H64.4671V8.4246H66.4366V7.48807H61.4155V8.4246H63.385V13.48H63.3851ZM67.1296 13.1679C67.4931 13.4209 67.8734 13.5814 68.3298 13.5814C69.2006 13.5814 69.6148 12.8639 69.8681 12.2225L71.7194 7.48818H70.5782L69.6148 10.1718C69.4796 10.5601 69.3696 10.9566 69.3696 10.9566H69.3526C69.3526 10.9566 69.2089 10.5601 69.0147 10.1632L67.7383 7.48807H66.5382L68.8878 12.1211C68.761 12.4503 68.5922 12.6444 68.2876 12.6444C68.0087 12.6444 67.7636 12.4672 67.6116 12.3489L67.1297 13.1677L67.1296 13.1679ZM72.463 13.48H73.5535V8.4246H76.2331V13.48H77.3233V7.48807H72.463V13.48ZM78.7771 13.48H79.8676V10.965H82.6147V13.48H83.6967V7.48807H82.6147V10.0282H79.8676V7.48807H78.7771V13.48ZM84.7956 10.4418C84.7956 12.2056 86.1311 13.5814 87.8979 13.5814C89.6645 13.5814 90.9998 12.2056 90.9998 10.4418C90.9998 8.72864 89.6644 7.38683 87.8979 7.38683C86.1311 7.38683 84.7956 8.72864 84.7956 10.4418ZM85.9199 10.4418C85.9199 9.2771 86.7989 8.38242 87.8979 8.38242C88.9967 8.38242 89.8756 9.2771 89.8756 10.4418C89.8756 11.657 88.9965 12.5854 87.8979 12.5854C86.7989 12.5854 85.9199 11.657 85.9199 10.4418Z" fill="white"/>
</svg>
