<svg width="135" height="40" viewBox="0 0 135 40" fill="none" xmlns="http://www.w3.org/2000/svg">
<path d="M130.275 40H4.7316C2.12344 40 0 37.8823 0 35.2778V4.72876C0 2.12204 2.12344 0.00146484 4.7316 0.00146484H130.275C132.79 0.00146484 134.859 1.9777 134.999 4.45947V35.5478C134.859 38.0274 132.791 40 130.275 40Z" fill="#FDFDFD"/>
<path d="M30.1465 19.7897C30.1178 16.5654 32.787 14.9978 32.9098 14.9246C31.3974 12.7207 29.0543 12.4198 28.2306 12.3961C26.2623 12.1893 24.3528 13.5731 23.3511 13.5731C22.3285 13.5731 20.7845 12.4162 19.1207 12.45C16.9793 12.4837 14.9765 13.7225 13.8778 15.647C11.61 19.5707 13.3012 25.3371 15.4734 28.509C16.5599 30.063 17.8295 31.7972 19.492 31.7355C21.1177 31.6687 21.7253 30.6999 23.6871 30.6999C25.6318 30.6999 26.2019 31.7355 27.8967 31.696C29.6417 31.6687 30.7404 30.1362 31.7895 28.5686C33.0448 26.7891 33.5489 25.0348 33.569 24.945C33.5288 24.9314 30.1817 23.6539 30.1472 19.7905L30.1465 19.7897Z" fill="black"/>
<path d="M26.9432 10.3096C27.8171 9.2159 28.4153 7.7287 28.2494 6.21924C26.9841 6.27597 25.4014 7.09461 24.4894 8.16388C23.683 9.10603 22.9627 10.65 23.1487 12.1027C24.5706 12.209 26.0305 11.3853 26.9432 10.3089V10.3096Z" fill="black"/>
<path d="M49.8042 25.962L48.6782 22.4871C48.559 22.1316 48.335 21.2958 48.0068 19.9788H47.9666C47.8345 20.5453 47.6233 21.3812 47.3339 22.4871L46.2273 25.962H49.8035H49.8042ZM53.6971 31.5123H51.4243L50.1798 27.6022H45.8539L44.6676 31.5123H42.4551L46.7422 18.2007H49.3899L53.6971 31.5123Z" fill="black"/>
<path d="M62.5282 26.6734C62.5282 25.7398 62.3178 24.9686 61.8956 24.3625C61.4338 23.7313 60.8148 23.4146 60.0386 23.4146C59.5122 23.4146 59.0339 23.5912 58.6066 23.9381C58.1787 24.2878 57.8986 24.7445 57.7672 25.3118C57.7011 25.5761 57.6681 25.7915 57.6681 25.9617V27.5624C57.6681 28.2597 57.8821 28.8485 58.3101 29.3304C58.7388 29.8108 59.2946 30.0513 59.979 30.0513C60.7825 30.0513 61.408 29.7411 61.8554 29.1235C62.3035 28.5045 62.5282 27.688 62.5282 26.6741V26.6734ZM64.7012 26.5951C64.7012 28.2273 64.2582 29.5178 63.3699 30.465C62.5756 31.308 61.5875 31.7288 60.4105 31.7288C59.1388 31.7288 58.2239 31.2757 57.6688 30.3673V35.4034H55.536V25.0691C55.536 24.0429 55.5095 22.9923 55.457 21.9137H57.3334L57.4527 23.4354H57.4929C58.2038 22.2886 59.2838 21.7163 60.7322 21.7163C61.8654 21.7163 62.8105 22.1636 63.5673 23.0584C64.3228 23.9553 64.7027 25.133 64.7027 26.5944L64.7012 26.5951Z" fill="black"/>
<path d="M73.5699 26.6734C73.5699 25.7398 73.3588 24.9686 72.9372 24.3625C72.4755 23.7313 71.8586 23.4146 71.0817 23.4146C70.5553 23.4146 70.077 23.5912 69.6483 23.9381C69.2203 24.2878 68.941 24.7445 68.8103 25.3118C68.7449 25.5761 68.7105 25.7915 68.7105 25.9617V27.5624C68.7105 28.2597 68.9252 28.8485 69.3517 29.3304C69.7797 29.81 70.3363 30.0513 71.0228 30.0513C71.8263 30.0513 72.4518 29.7411 72.8985 29.1235C73.3458 28.5045 73.5706 27.688 73.5706 26.6741L73.5699 26.6734ZM75.7443 26.5951C75.7443 28.2273 75.3005 29.5178 74.413 30.465C73.618 31.308 72.6306 31.7288 71.4522 31.7288C70.1811 31.7288 69.2663 31.2757 68.7105 30.3673V35.4034H66.5777V25.0691C66.5777 24.0429 66.5504 22.9923 66.498 21.9137H68.3744L68.4936 23.4354H68.5331C69.244 22.2886 70.3233 21.7163 71.7739 21.7163C72.9056 21.7163 73.8514 22.1636 74.6097 23.0584C75.3637 23.9553 75.7443 25.133 75.7443 26.5944V26.5951Z" fill="black"/>
<path d="M88.0929 27.7793C88.0929 28.9124 87.6972 29.8338 86.9095 30.5447C86.0434 31.321 84.8334 31.7095 83.2823 31.7095C81.8497 31.7095 80.7007 31.433 79.834 30.8801L80.3273 29.1027C81.2623 29.6564 82.2906 29.9329 83.4094 29.9329C84.2137 29.9329 84.8392 29.7512 85.2851 29.39C85.7325 29.0281 85.9587 28.5441 85.9587 27.9394C85.9587 27.398 85.772 26.9448 85.4043 26.5757C85.0352 26.2073 84.4241 25.8648 83.5674 25.5488C81.2357 24.6799 80.0695 23.4089 80.0695 21.7364C80.0695 20.6442 80.4817 19.7501 81.3046 19.0514C82.1276 18.3534 83.2177 18.0044 84.5742 18.0044C85.7856 18.0044 86.7953 18.2155 87.5974 18.6363L87.0617 20.3749C86.307 19.9663 85.4553 19.7623 84.5031 19.7623C83.7512 19.7623 83.1609 19.9476 82.7394 20.316C82.3832 20.6449 82.2037 21.0463 82.2037 21.5217C82.2037 22.0473 82.4091 22.4832 82.8177 22.825C83.1724 23.1403 83.8187 23.4836 84.7523 23.8519C85.8998 24.3137 86.7414 24.8523 87.2814 25.4706C87.8229 26.0888 88.0936 26.8594 88.0936 27.78L88.0929 27.7793Z" fill="black"/>
<path d="M95.1639 23.514H92.8128V28.1745C92.8128 29.3594 93.2279 29.9511 94.0573 29.9511C94.4386 29.9511 94.7553 29.9188 95.0052 29.8527L95.0641 31.472C94.644 31.6293 94.0911 31.7083 93.4046 31.7083C92.5622 31.7083 91.9037 31.4512 91.4291 30.9378C90.9558 30.4236 90.7181 29.5619 90.7181 28.3504V23.5125H89.3164V21.9126H90.7181V20.1547L92.8128 19.522V21.9119H95.1639V23.514Z" fill="black"/>
<path d="M103.54 26.6833C103.54 25.8043 103.35 25.0496 102.968 24.4191C102.521 23.6572 101.881 23.2759 101.051 23.2759C100.196 23.2759 99.5412 23.6572 99.0945 24.4191C98.7118 25.0496 98.5222 25.818 98.5222 26.7235C98.5222 27.6032 98.7125 28.3594 99.0945 28.9884C99.5555 29.7503 100.2 30.1316 101.032 30.1316C101.848 30.1316 102.488 29.7424 102.95 28.969C103.343 28.3242 103.54 27.5644 103.54 26.6833ZM105.752 26.6345C105.752 28.1095 105.33 29.3209 104.488 30.2681C103.607 31.2433 102.434 31.7294 100.972 31.7294C99.5613 31.7294 98.4389 31.2627 97.603 30.3291C96.7657 29.3942 96.3477 28.215 96.3477 26.7939C96.3477 25.306 96.78 24.0881 97.6411 23.1409C98.5049 22.1923 99.6683 21.7183 101.13 21.7183C102.539 21.7183 103.671 22.1865 104.527 23.1215C105.345 24.0292 105.752 25.199 105.752 26.6352V26.6345Z" fill="black"/>
<path d="M112.69 23.7899C112.478 23.7511 112.253 23.7318 112.017 23.7318C111.267 23.7318 110.686 24.014 110.278 24.5813C109.923 25.0811 109.746 25.7137 109.746 26.4764V31.5124H107.613V24.9367C107.613 23.8309 107.592 22.8226 107.551 21.9157H109.41L109.488 23.7519H109.546C109.772 23.1207 110.127 22.6115 110.614 22.2309C111.089 21.8877 111.602 21.7168 112.155 21.7168C112.353 21.7168 112.531 21.7304 112.689 21.7555V23.7892H112.69V23.7899Z" fill="black"/>
<path d="M120.195 25.7068C120.21 25.0741 120.07 24.5291 119.781 24.0681C119.411 23.4742 118.844 23.1783 118.082 23.1783C117.384 23.1783 116.817 23.4677 116.384 24.0479C116.028 24.509 115.816 25.0626 115.752 25.7068H120.195V25.7075V25.7068ZM122.23 26.2597C122.23 26.6417 122.205 26.9642 122.152 27.227H115.752C115.777 28.1756 116.086 28.9009 116.68 29.4014C117.22 29.8481 117.918 30.0714 118.774 30.0714C119.721 30.0714 120.585 29.9206 121.363 29.6183L121.697 31.0983C120.789 31.494 119.716 31.6908 118.478 31.6908C116.99 31.6908 115.821 31.2534 114.971 30.3781C114.123 29.5027 113.697 28.3271 113.697 26.8529C113.697 25.4066 114.092 24.2009 114.884 23.2401C115.712 22.2139 116.832 21.7012 118.241 21.7012C119.624 21.7012 120.672 22.2139 121.383 23.2401C121.948 24.0544 122.231 25.0626 122.231 26.2604L122.23 26.2597Z" fill="black"/>
<path d="M43.4507 7.29249C43.8967 7.01099 44.5279 6.77832 45.3444 6.77832C46.6463 6.77832 47.4614 7.43826 47.4614 8.4192C47.4614 9.23425 46.8991 9.81663 46.1314 9.99113V10.0113C46.9946 10.119 47.6854 10.7007 47.694 11.604C47.694 13.0216 46.354 13.5458 45.1498 13.5458C44.5085 13.5458 43.8299 13.4101 43.2949 13.0984L43.5664 12.1764C43.8967 12.3516 44.5279 12.5742 45.1002 12.5742C45.9454 12.5742 46.4409 12.167 46.4409 11.5358C46.4409 10.7014 45.595 10.4974 44.8783 10.4974H44.3627V9.60408H44.8783C45.6352 9.60408 46.2176 9.19691 46.2176 8.60375C46.2176 8.06948 45.8112 7.74992 45.1397 7.74992C44.6442 7.74992 44.1013 7.95387 43.7423 8.14775L43.4515 7.29321L43.4507 7.29249Z" fill="black"/>
<path d="M51.7407 11.1275C50.8955 11.1182 50.0897 11.2927 50.0897 12.0108C50.0897 12.4768 50.3907 12.6908 50.7705 12.6908C51.256 12.6908 51.5955 12.3799 51.7119 12.0409C51.7406 11.954 51.7407 11.8657 51.7407 11.7788V11.1275ZM52.9054 12.3016C52.9054 12.7289 52.9255 13.1461 52.9837 13.4369H51.9058L51.8182 12.9127H51.7887C51.5079 13.2811 51.0124 13.5439 50.3913 13.5439C49.4412 13.5439 48.9062 12.8546 48.9062 12.1364C48.9062 10.9523 49.9654 10.3412 51.7133 10.3505V10.2737C51.7133 9.9627 51.5877 9.44853 50.7519 9.44853C50.2851 9.44853 49.7996 9.59503 49.48 9.79897L49.2473 9.02269C49.5978 8.80942 50.2089 8.60547 50.9557 8.60547C52.4709 8.60547 52.9076 9.56702 52.9076 10.6047V12.3016H52.9054Z" fill="black"/>
<path d="M57.8258 8.70996V9.6514H55.8927V13.438H54.6992V8.70996H57.8258Z" fill="black"/>
<path d="M60.3474 11.4578C60.3474 11.5734 60.3568 11.6804 60.3762 11.7874C60.5026 12.2721 60.9198 12.6218 61.4347 12.6218C62.1923 12.6218 62.6382 11.9913 62.6382 11.0599C62.6382 10.2248 62.231 9.54542 61.4641 9.54542C60.9686 9.54542 60.5119 9.90447 60.3862 10.428C60.3661 10.525 60.3474 10.632 60.3474 10.7296V11.4578ZM59.1539 10.2822C59.1539 9.66175 59.1338 9.1562 59.1152 8.70954H60.1636L60.2225 9.4377H60.2426C60.593 8.90343 61.1453 8.60254 61.8641 8.60254C62.952 8.60254 63.8547 9.53536 63.8547 11.0104C63.8547 12.7188 62.7775 13.5439 61.7003 13.5439C61.1065 13.5439 60.6117 13.2918 60.369 12.9127H60.3489V15.3578H59.1554V10.2815H59.1547L59.1539 10.2822Z" fill="black"/>
<path d="M66.134 8.71019L66.9799 11.2443C67.077 11.5352 67.1831 11.8942 67.2506 12.1556H67.2794C67.3469 11.8942 67.4346 11.5352 67.5322 11.2336L68.2696 8.70947H69.5421L68.3572 11.933C67.7066 13.6996 67.2693 14.4852 66.7142 14.9713C66.2388 15.3792 65.7527 15.535 65.4618 15.5731L65.1904 14.5728C65.3951 14.5254 65.6371 14.4177 65.8798 14.2432C66.1124 14.0967 66.3738 13.8159 66.5397 13.4949C66.5885 13.4073 66.6072 13.3398 66.6072 13.2809C66.6072 13.2335 66.5972 13.1653 66.5483 13.0482L64.8105 8.70947H66.1333L66.134 8.71019Z" fill="black"/>
<path d="M71.2083 10.623H71.7698C72.4305 10.623 72.8096 10.3601 72.8096 10.0205C72.8096 9.6801 72.49 9.45749 71.9557 9.45749C71.5572 9.45749 71.1213 9.59321 70.791 9.7871L70.5267 9.07904C71.0524 8.7681 71.693 8.62305 72.2962 8.62305C73.1012 8.62305 74.0721 8.93399 74.0721 9.87543C74.0721 10.4779 73.5191 10.8276 73.0322 10.9339V10.9626C73.6634 11.0208 74.2853 11.3992 74.2853 12.098C74.2853 13.1952 73.0516 13.5356 72.0807 13.5356C71.4696 13.5356 70.8376 13.3891 70.373 13.1184L70.6445 12.3507C70.9748 12.536 71.4789 12.6703 71.9557 12.6804C72.6157 12.6804 72.9762 12.3989 72.9762 12.0391C72.9762 11.5343 72.4598 11.3791 71.7899 11.3791H71.2076V10.6223H71.2083V10.623Z" fill="black"/>
<path d="M76.9266 8.70996V10.409C76.9266 11.1558 76.8972 11.6614 76.8584 12.3213H76.8972C77.1492 11.7684 77.2842 11.4194 77.5391 10.9239L78.6931 8.7114H80.1394V13.4387H79.0041V11.7504C79.0041 10.9935 79.0335 10.6445 79.0824 9.75122H79.0436C78.8102 10.3135 78.6544 10.6532 78.4217 11.1092C78.0619 11.8086 77.6239 12.6631 77.2174 13.4394H75.7891V8.71068H76.9266V8.70996Z" fill="black"/>
<path d="M85.457 8.70996V9.63273H84.0402V13.438H82.8467V9.63273H81.4277V8.70996H85.457Z" fill="black"/>
<path d="M89.672 10.5733C89.6821 10.136 89.4861 9.41788 88.6925 9.41788C87.9536 9.41788 87.642 10.0872 87.5931 10.5733H89.672ZM87.5931 11.4092C87.6211 12.263 88.2825 12.6321 89.0509 12.6321C89.6038 12.6321 89.9923 12.5452 90.3629 12.4196L90.5374 13.2353C90.1295 13.4091 89.5665 13.5362 88.8864 13.5362C87.3526 13.5362 86.4492 12.5948 86.4492 11.1485C86.4492 9.83725 87.247 8.60498 88.7608 8.60498C90.2954 8.60498 90.7995 9.86669 90.7995 10.9051C90.7995 11.1284 90.7801 11.3036 90.7607 11.4099H87.5931V11.4092Z" fill="black"/>
<path d="M96.0152 10.6233H96.5099C97.1117 10.6233 97.618 10.4581 97.618 10.0014C97.618 9.62371 97.2884 9.41977 96.5882 9.41977C96.3455 9.41977 96.1897 9.43987 96.0159 9.45854V10.6233H96.0152ZM96.0066 12.7194C96.199 12.7395 96.3462 12.7395 96.5782 12.7395C97.1218 12.7395 97.7824 12.6038 97.7824 12.0408C97.7824 11.5173 97.2597 11.3414 96.5114 11.3414H96.0073V12.7201L96.0066 12.7194ZM94.8418 8.76844C95.1929 8.71028 95.9175 8.65283 96.571 8.65283C97.3681 8.65283 98.795 8.75839 98.795 9.8456C98.795 10.4481 98.3296 10.7877 97.8234 10.8947V10.9134C98.5329 11.0204 99.0082 11.4082 99.0082 12.0688C99.0082 13.36 97.2999 13.495 96.3577 13.495C95.7559 13.495 95.1247 13.4462 94.8439 13.4368V8.76844H94.8425H94.8418Z" fill="black"/>
</svg>
