<svg width="24" height="24" viewBox="0 0 24 24" fill="none" xmlns="http://www.w3.org/2000/svg">
<path d="M10.8508 3H9.83828L9.16328 5.5875L8.48828 3H7.36328C7.58828 3.675 7.81328 4.2375 8.03828 4.9125C8.37578 5.8125 8.60078 6.6 8.60078 7.05V9.75H9.61328V7.05L10.8508 3ZM13.5508 8.0625V6.375C13.5508 5.8125 13.4383 5.475 13.2133 5.1375C12.9883 4.8 12.6508 4.6875 12.2008 4.6875C11.7508 4.6875 11.4133 4.9125 11.1883 5.25C10.9633 5.475 10.8508 5.8125 10.8508 6.375V8.175C10.8508 8.7375 10.9633 9.075 11.1883 9.3C11.4133 9.6375 11.7508 9.75 12.2008 9.75C12.6508 9.75 12.9883 9.525 13.2133 9.1875C13.4383 9.075 13.5508 8.625 13.5508 8.0625ZM12.6508 8.2875C12.6508 8.7375 12.5383 8.9625 12.2008 8.9625C11.8633 8.9625 11.7508 8.7375 11.7508 8.2875V6.15C11.7508 5.7 11.8633 5.475 12.2008 5.475C12.5383 5.475 12.6508 5.7 12.6508 6.15V8.2875ZM16.9258 9.75V4.6875H16.0258V8.5125C15.8008 8.85 15.6883 8.9625 15.4633 8.9625C15.3508 8.9625 15.2383 8.85 15.2383 8.7375V4.6875H14.3383V8.625C14.3383 8.9625 14.3383 9.1875 14.4508 9.4125C14.4508 9.6375 14.6758 9.75 15.0133 9.75C15.3508 9.75 15.6883 9.525 16.0258 9.1875V9.75H16.9258Z" fill="white"/>
<path d="M17.3758 14.8125C17.0383 14.8125 16.9258 15.0375 16.9258 15.4875V15.9375H17.8258V15.4875C17.8258 15.0375 17.7133 14.8125 17.3758 14.8125Z" fill="white"/>
<path d="M14.1121 14.8125C13.9996 14.8125 13.7746 14.925 13.6621 15.0375V18.075C13.7746 18.1875 13.9996 18.3 14.1121 18.3C14.3371 18.3 14.4496 18.075 14.4496 17.625V15.4875C14.4496 15.0375 14.3371 14.8125 14.1121 14.8125Z" fill="white"/>
<path d="M19.625 12.3374C19.4 11.5499 18.725 10.8749 18.05 10.8749C16.25 10.6499 14.3375 10.6499 12.425 10.6499C10.5125 10.6499 8.7125 10.6499 6.8 10.8749C6.125 10.8749 5.45 11.5499 5.225 12.3374C5 13.4624 5 14.6999 5 15.8249C5 16.9499 5 18.1874 5.225 19.3124C5.45 20.0999 6.0125 20.6624 6.8 20.7749C8.7125 20.9999 10.5125 20.9999 12.425 20.9999C14.3375 20.9999 16.1375 20.9999 18.05 20.7749C18.8375 20.6624 19.5125 20.0999 19.625 19.3124C19.85 18.1874 19.85 16.9499 19.85 15.8249C19.85 14.6999 19.85 13.4624 19.625 12.3374ZM9.275 13.3499H8.15V19.0874H7.1375V13.3499H6.125V12.3374H9.275V13.3499ZM11.975 19.0874H11.075V18.5249C10.7375 18.9749 10.4 19.0874 10.0625 19.0874C9.725 19.0874 9.6125 18.9749 9.5 18.7499C9.5 18.6374 9.3875 18.4124 9.3875 17.9624V14.0249H10.2875V17.9624C10.2875 18.0749 10.4 18.1874 10.5125 18.1874C10.7375 18.1874 10.85 18.0749 11.075 17.7374V14.0249H11.975V19.0874ZM15.35 17.5124C15.35 17.9624 15.35 18.2999 15.2375 18.5249C15.125 18.8624 14.9 19.0874 14.5625 19.0874C14.225 19.0874 13.8875 18.8624 13.6625 18.5249V18.9749H12.7625V12.3374H13.6625V14.4749C14 14.1374 14.225 13.9124 14.5625 13.9124C14.9 13.9124 15.125 14.1374 15.2375 14.4749C15.35 14.6999 15.35 15.0374 15.35 15.4874V17.5124ZM18.725 16.7249H16.925V17.6249C16.925 18.0749 17.0375 18.2999 17.375 18.2999C17.6 18.2999 17.7125 18.1874 17.825 17.9624V17.3999H18.725V18.0749C18.725 18.2999 18.6125 18.4124 18.5 18.6374C18.275 18.9749 17.9375 19.1999 17.375 19.1999C16.925 19.1999 16.5875 18.9749 16.25 18.6374C16.025 18.4124 15.9125 17.9624 15.9125 17.5124V15.8249C15.9125 15.2624 16.025 14.9249 16.1375 14.6999C16.3625 14.3624 16.7 14.1374 17.2625 14.1374C17.7125 14.1374 18.05 14.3624 18.275 14.6999C18.5 14.9249 18.5 15.3749 18.5 15.8249V16.7249H18.725Z" fill="white"/>
</svg>
