<svg width="134" height="40" viewBox="0 0 134 40" fill="none" xmlns="http://www.w3.org/2000/svg">
<path d="M129.037 0H4.96273C2.23319 0 0 2.24985 0 4.99975V34.9997C0 37.7498 2.23319 40 4.96273 40H129.037C131.766 40 134 37.7498 134 34.9997V4.99975C134 2.24985 131.766 0 129.037 0Z" fill="#FDFDFD"/>
<path d="M106.937 29.9998H108.802V17.4987H106.937V29.9998ZM123.743 22.0018L121.604 27.4216H121.54L119.32 22.0018H117.311L120.64 29.5769L118.741 33.7908H120.687L125.818 22.0018H123.743ZM113.16 28.5798C112.55 28.5798 111.697 28.2737 111.697 27.5188C111.697 26.5536 112.759 26.1837 113.676 26.1837C114.495 26.1837 114.882 26.3606 115.38 26.6018C115.235 27.7597 114.238 28.5798 113.16 28.5798ZM113.386 21.7288C112.035 21.7288 110.636 22.3237 110.057 23.6427L111.713 24.3338C112.067 23.6427 112.727 23.4168 113.418 23.4168C114.383 23.4168 115.364 23.9956 115.38 25.0246V25.1535C115.042 24.9605 114.318 24.6717 113.434 24.6717C111.648 24.6717 109.831 25.6528 109.831 27.4857C109.831 29.1587 111.295 30.2367 112.936 30.2367C114.189 30.2367 114.882 29.6738 115.315 29.0138H115.38V29.9787H117.182V25.1868C117.182 22.9667 115.524 21.7288 113.386 21.7288ZM101.854 23.5237H99.199V19.2388H101.854C103.249 19.2388 104.041 20.3937 104.041 21.3807C104.041 22.3495 103.249 23.5237 101.854 23.5237ZM101.806 17.4986H97.3341V29.9997H99.199V25.2635H101.806C103.874 25.2635 105.907 23.7665 105.907 21.3806C105.907 18.9956 103.874 17.4986 101.806 17.4986ZM77.424 28.5826C76.1351 28.5826 75.056 27.5026 75.056 26.0206C75.056 24.5217 76.1351 23.4267 77.424 23.4267C78.696 23.4267 79.6952 24.5217 79.6952 26.0206C79.6952 27.5026 78.696 28.5826 77.424 28.5826ZM79.5659 22.7016H79.5022C79.0832 22.2027 78.277 21.7505 77.2631 21.7505C75.1359 21.7505 73.1871 23.6206 73.1871 26.0206C73.1871 28.4046 75.136 30.2576 77.2631 30.2576C78.277 30.2576 79.0832 29.8066 79.5022 29.2916H79.5659V29.9027C79.5659 31.5305 78.696 32.3997 77.2951 32.3997C76.151 32.3997 75.442 31.5785 75.1521 30.8858L73.525 31.5627C73.9921 32.6898 75.232 34.0756 77.2951 34.0756C79.486 34.0756 81.339 32.7867 81.339 29.6456V22.0085H79.5659V22.7016ZM82.6282 29.9997H84.496V17.4986H82.6282V29.9997ZM87.2509 25.8756C87.203 24.2318 88.524 23.3947 89.475 23.3947C90.216 23.3947 90.8442 23.7657 91.0542 24.2967L87.2509 25.8757V25.8756ZM93.0512 24.4577C92.696 23.5079 91.6171 21.7506 89.41 21.7506C87.2191 21.7506 85.3979 23.4758 85.3979 26.0045C85.3979 28.3888 87.203 30.2576 89.619 30.2576C91.5681 30.2576 92.696 29.0657 93.164 28.3727L91.7141 27.4058C91.23 28.1148 90.57 28.5828 89.619 28.5828C88.6691 28.5828 87.9922 28.1468 87.5579 27.2928L93.2439 24.9409L93.0511 24.4578L93.0512 24.4577ZM47.743 23.0569V24.8609H52.061C51.9321 25.8757 51.593 26.6167 51.0779 27.1317C50.449 27.7607 49.4659 28.4538 47.7429 28.4538C45.084 28.4538 43.006 26.3108 43.006 23.6527C43.006 20.9947 45.0841 18.8517 47.7429 18.8517C49.177 18.8517 50.2238 19.4158 50.9968 20.1409L52.2699 18.8679C51.1899 17.837 49.757 17.0469 47.7429 17.0469C44.1018 17.0469 41.041 20.012 41.041 23.6528C41.041 27.2928 44.1019 30.2579 47.7429 30.2579C49.7079 30.2579 51.1899 29.613 52.3499 28.4048C53.5421 27.2129 53.9129 25.5378 53.9129 24.1837C53.9129 23.7659 53.8809 23.3789 53.816 23.057H47.743V23.0569ZM58.8211 28.5827C57.5331 28.5827 56.4211 27.5188 56.4211 26.0046C56.4211 24.4736 57.5331 23.4268 58.8211 23.4268C60.1101 23.4268 61.2221 24.4736 61.2221 26.0046C61.2221 27.5189 60.1101 28.5827 58.8211 28.5827ZM58.8211 21.7506C56.4689 21.7506 54.5522 23.5398 54.5522 26.0045C54.5522 28.4536 56.469 30.2576 58.8211 30.2576C61.1741 30.2576 63.091 28.4536 63.091 26.0045C63.091 23.5398 61.1741 21.7506 58.8211 21.7506ZM68.1349 28.5827C66.846 28.5827 65.734 27.5188 65.734 26.0046C65.734 24.4736 66.846 23.4268 68.1349 23.4268C69.4242 23.4268 70.535 24.4736 70.535 26.0046C70.535 27.5189 69.4241 28.5827 68.1349 28.5827ZM68.1349 21.7506C65.783 21.7506 63.866 23.5398 63.866 26.0045C63.866 28.4536 65.783 30.2576 68.1349 30.2576C70.4872 30.2576 72.4042 28.4536 72.4042 26.0045C72.4042 23.5398 70.4872 21.7506 68.1349 21.7506Z" fill="black"/>
<path fill-rule="evenodd" clip-rule="evenodd" d="M22.8986 20.1471V19.8551L10.5087 7.46484L10.4347 7.53792C10.1447 7.84605 9.97266 8.32394 9.97266 8.94305V31.0589C9.97266 31.6789 10.1447 32.1568 10.4347 32.4637L10.5087 32.5357L22.8986 20.1468V20.1471Z" fill="#00D9FF"/>
<path fill-rule="evenodd" clip-rule="evenodd" d="M22.8984 19.855V20.0009V20.1468L27.0276 24.2777L27.1215 24.2258L32.0147 21.4456C33.4116 20.6509 33.4116 19.3508 32.0147 18.5577L27.1215 15.7766L27.0285 15.7236L22.8984 19.8549V19.855Z" fill="#FFCD00"/>
<path fill-rule="evenodd" clip-rule="evenodd" d="M10.4356 32.4638C10.8965 32.9508 11.6576 33.012 12.5145 32.5259L27.1226 24.2249L22.8995 20.001L10.4355 32.4638H10.4356Z" fill="#FA3746"/>
<path fill-rule="evenodd" clip-rule="evenodd" d="M11.4096 7.13965H11.3937H11.3758C10.9993 7.14393 10.6765 7.28252 10.4355 7.53765L22.8995 20.0008L27.1226 15.7766L12.5145 7.47675C12.1188 7.25136 11.7435 7.14316 11.4096 7.13976V7.13965Z" fill="#00F076"/>
<path d="M43.9359 12.1762C44.5613 11.162 44.7135 9.67428 44.7135 8.49937V8.05122H46.3197V12.1762H43.9361H43.9359ZM42.2031 12.1762V14.2979H43.2089V13.1144H47.1057V14.2979H48.0777V12.1762H47.4099V7.11323H43.6823V8.42311C43.6823 9.64026 43.5556 11.052 42.8118 12.1762H42.2033H42.2031ZM48.6693 10.0716C48.6693 11.8381 50.0047 13.2161 51.7715 13.2161C53.5381 13.2161 54.8735 11.8381 54.8735 10.0716C54.8735 8.35573 53.538 7.01183 51.7715 7.01183C50.0047 7.01183 48.6693 8.35573 48.6693 10.0716ZM49.7935 10.0716C49.7935 8.90505 50.6726 8.00897 51.7715 8.00897C52.8703 8.00897 53.7492 8.90505 53.7492 10.0716C53.7492 11.2887 52.8702 12.2185 51.7715 12.2185C50.6726 12.2185 49.7935 11.2887 49.7935 10.0716ZM55.6258 10.0886C55.6258 11.8551 56.8429 13.2161 58.7277 13.2161C59.8012 13.2161 60.5706 12.7679 61.0861 12.244L60.5112 11.4577C60.0548 11.9058 59.4124 12.2185 58.7702 12.2185C57.4682 12.2185 56.7499 11.1958 56.7499 10.0716C56.7499 8.96431 57.443 8.00897 58.7616 8.00897C59.3447 8.00897 59.9788 8.27968 60.4015 8.64312L60.9253 7.83154C60.3422 7.26521 59.4969 7.01172 58.7109 7.01172C56.9021 7.01172 55.6257 8.34717 55.6257 10.0884L55.6258 10.0886ZM63.3851 13.1145H64.4671V8.05122H66.4366V7.11323H61.4155V8.05122H63.385V13.1145H63.3851ZM67.1296 12.8019C67.4931 13.0553 67.8734 13.2161 68.3298 13.2161C69.2006 13.2161 69.6148 12.4975 69.8681 11.8551L71.7194 7.11334H70.5782L69.6148 9.80113C69.4796 10.1901 69.3696 10.5872 69.3696 10.5872H69.3526C69.3526 10.5872 69.2089 10.1901 69.0147 9.79257L67.7383 7.11323H66.5382L68.8878 11.7535C68.761 12.0832 68.5922 12.2776 68.2876 12.2776C68.0087 12.2776 67.7636 12.1002 67.6116 11.9817L67.1297 12.8017L67.1296 12.8019ZM72.463 13.1145H73.5535V8.05122H76.2331V13.1145H77.3233V7.11323H72.463V13.1145ZM78.7771 13.1145H79.8676V10.5956H82.6147V13.1145H83.6967V7.11323H82.6147V9.65727H79.8676V7.11323H78.7771V13.1145ZM84.7956 10.0716C84.7956 11.8381 86.1311 13.2161 87.8979 13.2161C89.6645 13.2161 90.9998 11.8381 90.9998 10.0716C90.9998 8.35573 89.6644 7.01183 87.8979 7.01183C86.1311 7.01183 84.7956 8.35573 84.7956 10.0716ZM85.9199 10.0716C85.9199 8.90505 86.7989 8.00897 87.8979 8.00897C88.9967 8.00897 89.8756 8.90505 89.8756 10.0716C89.8756 11.2887 88.9965 12.2185 87.8979 12.2185C86.7989 12.2185 85.9199 11.2887 85.9199 10.0716Z" fill="black"/>
</svg>
