<svg width="24" height="24" viewBox="0 0 24 24" fill="none" xmlns="http://www.w3.org/2000/svg">
<circle cx="12" cy="12" r="11" stroke="#19BB4F" stroke-width="2"/>
<path d="M10.9346 13.9648V13.5273C10.9346 13.026 11.0257 12.609 11.208 12.2764C11.3903 11.9437 11.7093 11.5996 12.165 11.2441C12.7074 10.8158 13.056 10.4831 13.2109 10.2461C13.3704 10.0091 13.4502 9.72656 13.4502 9.39844C13.4502 9.01562 13.3226 8.72168 13.0674 8.5166C12.8122 8.31152 12.4453 8.20898 11.9668 8.20898C11.5339 8.20898 11.1328 8.27051 10.7637 8.39355C10.3945 8.5166 10.0345 8.66471 9.68359 8.83789L9.10938 7.63477C10.0345 7.11979 11.0257 6.8623 12.083 6.8623C12.9762 6.8623 13.6849 7.08105 14.209 7.51855C14.7331 7.95605 14.9951 8.5599 14.9951 9.33008C14.9951 9.67188 14.945 9.97721 14.8447 10.2461C14.7445 10.5104 14.5918 10.7633 14.3867 11.0049C14.1862 11.2464 13.8376 11.5609 13.3408 11.9482C12.917 12.2809 12.6322 12.5566 12.4863 12.7754C12.3451 12.9941 12.2744 13.2881 12.2744 13.6572V13.9648H10.9346ZM10.6543 16.1455C10.6543 15.4574 10.9893 15.1133 11.6592 15.1133C11.9873 15.1133 12.238 15.2044 12.4111 15.3867C12.5843 15.5645 12.6709 15.8174 12.6709 16.1455C12.6709 16.4691 12.582 16.7266 12.4043 16.918C12.2311 17.1048 11.9827 17.1982 11.6592 17.1982C11.3356 17.1982 11.0872 17.1071 10.9141 16.9248C10.7409 16.738 10.6543 16.4782 10.6543 16.1455Z" fill="black"/>
</svg>
