<svg width="22" height="24" viewBox="0 0 22 24" fill="none" xmlns="http://www.w3.org/2000/svg">
<path d="M20.5996 5.6H21.3996V5.2688L21.166 5.0336L20.5996 5.6ZM15.7996 0.8L16.366 0.2336L16.1308 0H15.7996V0.8ZM9.39961 16.8H8.59961V17.6H9.39961V16.8ZM6.19961 15.2H6.99961V14.8688L6.76601 14.6336L6.19961 15.2ZM2.99961 12H2.19961V12.3312L2.43321 12.5664L2.99961 12ZM15.7996 10.4V9.6H14.9996V10.4H15.7996ZM15.7996 13.6H14.9996V14.4H15.7996V13.6ZM18.9996 13.6H19.7996V12.8H18.9996V13.6ZM18.9996 16.8V17.6H19.7996V16.8H18.9996ZM2.99961 15.2L2.43321 14.6336L2.19961 14.8688V15.2H2.99961ZM6.19961 12L6.76601 12.5664L6.99961 12.3312V12H6.19961ZM2.19961 8V2.4H0.599609V8H2.19961ZM19.7996 5.6V8H21.3996V5.6H19.7996ZM2.99961 1.6H15.7996V0H2.99961V1.6ZM15.2332 1.3664L20.0332 6.1664L21.166 5.0336L16.366 0.2336L15.2332 1.3664ZM2.19961 2.4C2.19961 2.18783 2.2839 1.98434 2.43392 1.83431C2.58395 1.68429 2.78744 1.6 2.99961 1.6V0C2.36309 0 1.75264 0.252856 1.30255 0.702944C0.852466 1.15303 0.599609 1.76348 0.599609 2.4H2.19961ZM0.599609 19.2V21.6H2.19961V19.2H0.599609ZM2.99961 24H18.9996V22.4H2.99961V24ZM21.3996 21.6V19.2H19.7996V21.6H21.3996ZM18.9996 24C19.6361 24 20.2466 23.7471 20.6967 23.2971C21.1468 22.847 21.3996 22.2365 21.3996 21.6H19.7996C19.7996 21.8122 19.7153 22.0157 19.5653 22.1657C19.4153 22.3157 19.2118 22.4 18.9996 22.4V24ZM0.599609 21.6C0.599609 22.2365 0.852466 22.847 1.30255 23.2971C1.75264 23.7471 2.36309 24 2.99961 24V22.4C2.78744 22.4 2.58395 22.3157 2.43392 22.1657C2.2839 22.0157 2.19961 21.8122 2.19961 21.6H0.599609ZM8.59961 9.6V16.8H10.1996V9.6H8.59961ZM9.39961 17.6H13.3996V16H9.39961V17.6ZM5.39961 15.2V17.6H6.99961V15.2H5.39961ZM6.76601 14.6336L3.56601 11.4336L2.43321 12.5664L5.63321 15.7664L6.76601 14.6336ZM3.79961 12V9.6H2.19961V12H3.79961ZM19.7996 9.6H15.7996V11.2H19.7996V9.6ZM14.9996 10.4V13.6H16.5996V10.4H14.9996ZM15.7996 14.4H18.9996V12.8H15.7996V14.4ZM18.1996 13.6V16.8H19.7996V13.6H18.1996ZM18.9996 16H14.9996V17.6H18.9996V16ZM3.79961 17.6V15.2H2.19961V17.6H3.79961ZM3.56601 15.7664L6.76601 12.5664L5.63321 11.4336L2.43321 14.6336L3.56601 15.7664ZM6.99961 12V9.6H5.39961V12H6.99961Z" fill="#19BB4F"/>
</svg>
